<svg xmlns="http://www.w3.org/2000/svg" viewBox="26 62 1202 1134" preserveAspectRatio="xMidYMid meet"><title>반짝 나비</title><desc>사람이 보낸 21-yellow-butterfly 그림이다 — path·색은 한 글자도 안 고쳤고, viewBox 만 칠한 데에 바짝 조였다(원본은 좌 2.1% · 우 2.1% · 위 4.9% · 아래 4.6% 가 비어 있었다). width/height 속성도 걷었다 — 남아 있으면 viewBox 를 조여도 상자가 옛 크기로 남는다.</desc><path id="silhouette" fill="#F8D56E" fill-rule="evenodd" d="M429,62.5Q429,62 435,62Q441,62 441,62.5Q441,63 445,63Q449,63 449,63.5Q449,64 453.5,64.5Q458,65 458,65.5Q458,66 459,66Q460,66 460,66.5Q460,67 461.5,67Q463,67 463,67.5Q463,68 464,68Q465,68 465,68.5Q465,69 466,69Q467,69 467,69.5Q467,70 470,71Q473,72 473,72.5Q473,73 474.5,73.5Q476,74 476.5,75Q477,76 478,76Q479,76 479,76.5Q479,77 479.5,77Q480,77 480,77.5Q480,78 480.5,78Q481,78 481,78.5Q481,79 481.5,79Q482,79 482,79.5Q482,80 482.5,80Q483,80 483,80.5Q483,81 483.5,81Q484,81 484,81.5Q484,82 484.5,82Q485,82 485,82.5Q485,83 485.5,83Q486,83 486,83.5Q486,84 489,86.5Q492,89 492,90Q492,91 493,91.5Q494,92 494,93Q494,94 495,94.5Q496,95 496,96Q496,97 496.5,97Q497,97 497,98Q497,99 497.5,99Q498,99 498,100Q498,101 498.5,101Q499,101 499,102.5Q499,104 499.5,104Q500,104 500.5,106.5Q501,109 501.5,109Q502,109 502.5,113Q503,117 503.5,117Q504,117 504.5,124Q505,131 505.5,131Q506,131 506.5,132Q507,133 510,134Q513,135 513.5,136Q514,137 516,137.5Q518,138 519,139.5Q520,141 521,141Q522,141 522.5,142Q523,143 524,143Q525,143 525.5,144Q526,145 527,145Q528,145 529,146.5Q530,148 531,148Q532,148 534.5,151Q537,154 538,154Q539,154 539,154.5Q539,155 539.5,155Q540,155 540,155.5Q540,156 540.5,156Q541,156 541,156.5Q541,157 541.5,157Q542,157 542,157.5Q542,158 542.5,158Q543,158 543,158.5Q543,159 543.5,159Q544,159 544,159.5Q544,160 547,162.5Q550,165 550,166Q550,167 550.5,167Q551,167 551,167.5Q551,168 554,170.5Q557,173 557,174Q557,175 559,176.5Q561,178 561,179Q561,180 562,180.5Q563,181 563,182Q563,183 565,184.5Q567,186 567,187Q567,188 568,188.5Q569,189 569,190Q569,191 569.5,191Q570,191 570.5,192.5Q571,194 572,194.5Q573,195 573.5,197Q574,199 575,199.5Q576,200 576.5,202Q577,204 578,204.5Q579,205 579,206Q579,207 579.5,207Q580,207 581,210Q582,213 583,213.5Q584,214 584,215Q584,216 584.5,216Q585,216 585,217Q585,218 585.5,218Q586,218 586,219.5Q586,221 586.5,221Q587,221 587.5,223Q588,225 589,225.5Q590,226 590.5,228.5Q591,231 591.5,231Q592,231 592,232Q592,233 592.5,233Q593,233 593,234Q593,235 593.5,235Q594,235 594,236.5Q594,238 594.5,238Q595,238 595.5,240.5Q596,243 596.5,243Q597,243 597,244Q597,245 597.5,245Q598,245 598,246.5Q598,248 598.5,248Q599,248 599.5,251Q600,254 600.5,254Q601,254 601,255Q601,256 601.5,256Q602,256 602,257.5Q602,259 602.5,259Q603,259 603,260.5Q603,262 603.5,262Q604,262 604,263.5Q604,265 604.5,265Q605,265 605,266.5Q605,268 605.5,268Q606,268 606,270Q606,272 606.5,272Q607,272 607,273.5Q607,275 607.5,275Q608,275 608,276.5Q608,278 608.5,278Q609,278 609,280Q609,282 609.5,282Q610,282 610,284Q610,286 610.5,286Q611,286 611.5,290.5Q612,295 612.5,295Q613,295 613,297.5Q613,300 613.5,300Q614,300 614,302.5Q614,305 614.5,305Q615,305 615,308Q615,311 615.5,311Q616,311 616,314.5Q616,318 616.5,318Q617,318 617,321.5Q617,325 617.5,325Q618,325 618,330.5Q618,336 618.5,336Q619,336 619,337Q619,338 620,338Q621,338 621,338.5Q621,339 636,339Q651,339 651,339.5Q651,340 662,340.5Q673,341 673,341.5Q673,342 676,342Q679,342 679,342.5Q679,343 682,343Q685,343 685,343.5Q685,344 687.5,344Q690,344 690,344.5Q690,345 692.5,345Q695,345 695,345.5Q695,346 700,346.5Q705,347 705,347.5Q705,348 706.5,348Q708,348 708,348.5Q708,349 710,349Q712,349 712,349.5Q712,350 713.5,350Q715,350 715,350.5Q715,351 717,351Q719,351 719,351.5Q719,352 720.5,352Q722,352 722,352.5Q722,353 724,353Q726,353 726,353.5Q726,354 727.5,354Q729,354 729,354.5Q729,355 732,355.5Q735,356 735,356.5Q735,357 736,357Q737,357 737,357.5Q737,358 738.5,358Q740,358 740,358.5Q740,359 741.5,359Q743,359 743,359.5Q743,360 744,360Q745,360 745,360.5Q745,361 746.5,361Q748,361 748,361.5Q748,362 749,362Q750,362 750,362.5Q750,363 751,363Q752,363 752,363.5Q752,364 753.5,364Q755,364 755,364.5Q755,365 756,365Q757,365 757,365.5Q757,366 758,366Q759,366 759,366.5Q759,367 760,367Q761,367 761,367.5Q761,368 762,368Q763,368 763,368.5Q763,369 764.5,369Q766,369 766,369.5Q766,370 768,370.5Q770,371 770.5,372Q771,373 772,373Q773,373 773,373.5Q773,374 774,374Q775,374 775,374.5Q775,375 778,376Q781,377 781.5,378Q782,379 785,380Q788,381 788.5,382Q789,383 790,383Q791,383 791.5,384Q792,385 793,385Q794,385 794.5,386Q795,387 796,387Q797,387 797.5,388Q798,389 799,389Q800,389 800.5,390Q801,391 802,391Q803,391 804,392.5Q805,394 806,394Q807,394 807.5,395Q808,396 809,396Q810,396 810,396.5Q810,397 810.5,397Q811,397 811.5,398Q812,399 813,399Q814,399 815,400.5Q816,402 817,402Q818,402 820,404.5Q822,407 823.5,407Q825,407 825,406.5Q825,406 826,405.5Q827,405 827,404Q827,403 827.5,403Q828,403 828,402.5Q828,402 829,401.5Q830,401 830,400Q830,399 831.5,398Q833,397 833,396Q833,395 834,394.5Q835,394 836,391Q837,388 837.5,388Q838,388 838.5,386.5Q839,385 840,384.5Q841,384 841,383Q841,382 841.5,382Q842,382 843,379Q844,376 845,375.5Q846,375 846,374Q846,373 846.5,373Q847,373 847,372Q847,371 847.5,371Q848,371 848,370Q848,369 848.5,369Q849,369 849,368Q849,367 849.5,367Q850,367 850,366Q850,365 850.5,365Q851,365 851,363.5Q851,362 851.5,362Q852,362 852,361Q852,360 852.5,360Q853,360 853,358.5Q853,357 853.5,357Q854,357 854,356Q854,355 854.5,355Q855,355 855,353.5Q855,352 855.5,352Q856,352 856,351Q856,350 856.5,350Q857,350 857,348.5Q857,347 857.5,347Q858,347 858,345.5Q858,344 858.5,344Q859,344 859,342.5Q859,341 859.5,341Q860,341 860,339Q860,337 860.5,337Q861,337 861.5,333.5Q862,330 862.5,330Q863,330 863,327.5Q863,325 863.5,325Q864,325 864,322.5Q864,320 864.5,320Q865,320 865.5,312.5Q866,305 866.5,305Q867,305 867,296Q867,287 866.5,287Q866,287 866,282Q866,277 865.5,277Q865,277 865,274.5Q865,272 864.5,272Q864,272 864,271Q864,270 863,270Q862,270 862,269.5Q862,269 861,269Q860,269 860,269.5Q860,270 858,270Q856,270 856,270.5Q856,271 854,271Q852,271 852,271.5Q852,272 848.5,272Q845,272 845,272.5Q845,273 838.5,273Q832,273 832,272.5Q832,272 826,271.5Q820,271 820,270.5Q820,270 818,270Q816,270 816,269.5Q816,269 814.5,269Q813,269 813,268.5Q813,268 812,268Q811,268 811,267.5Q811,267 809.5,267Q808,267 808,266.5Q808,266 806,265.5Q804,265 803.5,264Q803,263 801,262.5Q799,262 798.5,261Q798,260 797,260Q796,260 795,258.5Q794,257 793,257Q792,257 792,256.5Q792,256 791.5,256Q791,256 791,255.5Q791,255 790.5,255Q790,255 790,254.5Q790,254 787,251.5Q784,249 784,248Q784,247 783.5,247Q783,247 783,246.5Q783,246 782,245.5Q781,245 781,244Q781,243 779.5,242Q778,241 778,240Q778,239 777,238.5Q776,238 776,237Q776,236 775.5,236Q775,236 775,235Q775,234 774.5,234Q774,234 774,233Q774,232 773.5,232Q773,232 773,230.5Q773,229 772.5,229Q772,229 772,227.5Q772,226 771.5,226Q771,226 771,224.5Q771,223 770.5,223Q770,223 770,221Q770,219 769.5,219Q769,219 769,215.5Q769,212 768.5,212Q768,212 768,203Q768,194 768.5,194Q769,194 769,191.5Q769,189 769.5,189Q770,189 770,187Q770,185 770.5,185Q771,185 771,183.5Q771,182 771.5,182Q772,182 772.5,179Q773,176 773.5,176Q774,176 775,173Q776,170 777,169.5Q778,169 778.5,167Q779,165 781,163.5Q783,162 783,161Q783,160 783.5,160Q784,160 784,159.5Q784,159 784.5,159Q785,159 785,158.5Q785,158 785.5,158Q786,158 786,157.5Q786,157 786.5,157Q787,157 787,156.5Q787,156 787.5,156Q788,156 788,155.5Q788,155 788.5,155Q789,155 791.5,152Q794,149 795,149Q796,149 796.5,148Q797,147 798,147Q799,147 799.5,146Q800,145 802,144.5Q804,144 804.5,143Q805,142 806,142Q807,142 807,141.5Q807,141 808,141Q809,141 809,140.5Q809,140 810,140Q811,140 811,139.5Q811,139 812.5,139Q814,139 814,138.5Q814,138 815.5,138Q817,138 817,137.5Q817,137 818.5,137Q820,137 820,136.5Q820,136 822,136Q824,136 824,135.5Q824,135 827,135Q830,135 830,134.5Q830,134 839,134Q848,134 848,134.5Q848,135 851,135Q854,135 854,135.5Q854,136 858.5,136.5Q863,137 863,137.5Q863,138 864,138Q865,138 865,138.5Q865,139 866.5,139Q868,139 868,139.5Q868,140 869,140Q870,140 870,140.5Q870,141 871,141Q872,141 872,141.5Q872,142 875,143Q878,144 878,144.5Q878,145 879.5,145.5Q881,146 882,147.5Q883,149 884,149Q885,149 885,149.5Q885,150 885.5,150Q886,150 886,150.5Q886,151 886.5,151Q887,151 887,151.5Q887,152 887.5,152Q888,152 888,152.5Q888,153 888.5,153Q889,153 889,153.5Q889,154 889.5,154Q890,154 890,154.5Q890,155 890.5,155Q891,155 891,155.5Q891,156 894,158.5Q897,161 897,162Q897,163 897.5,163Q898,163 898.5,164.5Q899,166 900,166.5Q901,167 901,168Q901,169 901.5,169Q902,169 902,170Q902,171 902.5,171Q903,171 903,172Q903,173 903.5,173Q904,173 904,174Q904,175 904.5,175Q905,175 905,176Q905,177 905.5,177Q906,177 906,178Q906,179 906.5,179Q907,179 907,180.5Q907,182 907.5,182Q908,182 908,184Q908,186 908.5,186Q909,186 909,188Q909,190 909.5,190Q910,190 910.5,198Q911,206 910.5,206Q910,206 909.5,213Q909,220 908.5,220Q908,220 908,221.5Q908,223 907.5,223Q907,223 907,224.5Q907,226 906.5,226Q906,226 906,227.5Q906,229 905.5,229Q905,229 905,230Q905,231 904.5,231Q904,231 903.5,233.5Q903,236 903.5,236Q904,236 904,237Q904,238 904.5,238Q905,238 905,239Q905,240 905.5,240Q906,240 906,241Q906,242 906.5,242Q907,242 907,243Q907,244 907.5,244Q908,244 908,245Q908,246 908.5,246Q909,246 909,247.5Q909,249 909.5,249Q910,249 910,250Q910,251 910.5,251Q911,251 911,252.5Q911,254 911.5,254Q912,254 912,255.5Q912,257 912.5,257Q913,257 913,258.5Q913,260 913.5,260Q914,260 914,262Q914,264 914.5,264Q915,264 915,266Q915,268 915.5,268Q916,268 916,270.5Q916,273 916.5,273Q917,273 917,275.5Q917,278 917.5,278Q918,278 918.5,287Q919,296 919.5,296Q920,296 920,306.5Q920,317 919.5,317Q919,317 919,322Q919,327 918.5,327Q918,327 917.5,335Q917,343 916.5,343Q916,343 915.5,348Q915,353 914.5,353Q914,353 914,354.5Q914,356 913.5,356Q913,356 913,358Q913,360 912.5,360Q912,360 912,361.5Q912,363 911.5,363Q911,363 911,364.5Q911,366 910.5,366Q910,366 910,367.5Q910,369 909.5,369Q909,369 909,370.5Q909,372 908.5,372Q908,372 908,373.5Q908,375 907.5,375Q907,375 906.5,378Q906,381 905.5,381Q905,381 905,382Q905,383 904.5,383Q904,383 904,384.5Q904,386 903.5,386Q903,386 903,387Q903,388 902.5,388Q902,388 902,389Q902,390 901.5,390Q901,390 901,391Q901,392 900.5,392Q900,392 900,393.5Q900,395 899.5,395Q899,395 899,396Q899,397 898.5,397Q898,397 898,398Q898,399 897.5,399Q897,399 896,402Q895,405 894,405.5Q893,406 893,407Q893,408 892.5,408Q892,408 891,411Q890,414 889,414.5Q888,415 888,416Q888,417 887.5,417Q887,417 886.5,418.5Q886,420 885,420.5Q884,421 883.5,423Q883,425 882.5,425Q882,425 881.5,426.5Q881,428 879.5,429Q878,430 878,431Q878,432 876,433.5Q874,435 874,436Q874,437 871,439.5Q868,442 868,443Q868,444 865.5,446Q863,448 863,449.5Q863,451 864,451.5Q865,452 865,453Q865,454 866,454.5Q867,455 867,456Q867,457 867.5,457Q868,457 868.5,458.5Q869,460 870,460.5Q871,461 871.5,463Q872,465 872.5,465Q873,465 873.5,466.5Q874,468 875,468.5Q876,469 876.5,471Q877,473 878,473.5Q879,474 879,475Q879,476 879.5,476Q880,476 880,477Q880,478 880.5,478Q881,478 881,479Q881,480 881.5,480Q882,480 882,481Q882,482 882.5,482Q883,482 883,483Q883,484 883.5,484Q884,484 884,485Q884,486 884.5,486Q885,486 885,487Q885,488 885.5,488Q886,488 886,489Q886,490 886.5,490Q887,490 887,491Q887,492 887.5,492Q888,492 888,493Q888,494 888.5,494Q889,494 889,495.5Q889,497 889.5,497Q890,497 890,498Q890,499 890.5,499Q891,499 891,500Q891,501 891.5,501Q892,501 892,502Q892,503 892.5,503Q893,503 893,504.5Q893,506 893.5,506Q894,506 894,507Q894,508 894.5,508Q895,508 895,509.5Q895,511 895.5,511Q896,511 896,512.5Q896,514 896.5,514Q897,514 897.5,516Q898,518 898.5,518Q899,518 899,518.5Q899,519 900.5,519Q902,519 902.5,518Q903,517 904,517Q905,517 905.5,516Q906,515 907,515Q908,515 908.5,514Q909,513 910,513Q911,513 911.5,512Q912,511 913,511Q914,511 914,510.5Q914,510 914.5,510Q915,510 915.5,509Q916,508 917,508Q918,508 918.5,507Q919,506 921,505.5Q923,505 923,504.5Q923,504 924.5,503.5Q926,503 926.5,502Q927,501 928,501Q929,501 929,500.5Q929,500 930,500Q931,500 931.5,499Q932,498 933,498Q934,498 934,497.5Q934,497 935,497Q936,497 936,496.5Q936,496 937,496Q938,496 938,495.5Q938,495 939,495Q940,495 940,494.5Q940,494 943,493Q946,492 946.5,491Q947,490 948,490Q949,490 949,489.5Q949,489 950,489Q951,489 951,488.5Q951,488 952.5,488Q954,488 954,487.5Q954,487 955,487Q956,487 956,486.5Q956,486 957,486Q958,486 958,485.5Q958,485 959,485Q960,485 960,484.5Q960,484 961,484Q962,484 962,483.5Q962,483 963.5,483Q965,483 965,482.5Q965,482 966,482Q967,482 967,481.5Q967,481 970,480.5Q973,480 973,479.5Q973,479 974,479Q975,479 975,478.5Q975,478 976.5,478Q978,478 978,477.5Q978,477 979.5,477Q981,477 981,476.5Q981,476 982,476Q983,476 983,475.5Q983,475 985,475Q987,475 987,474.5Q987,474 988.5,474Q990,474 990,473.5Q990,473 991.5,473Q993,473 993,472.5Q993,472 995,472Q997,472 997,471.5Q997,471 1000.5,470.5Q1004,470 1004,469.5Q1004,469 1006.5,469Q1009,469 1009,468.5Q1009,468 1011.5,468Q1014,468 1014,467.5Q1014,467 1020.5,466.5Q1027,466 1027,465.5Q1027,465 1031.5,465Q1036,465 1036,464.5Q1036,464 1054,464Q1072,464 1072,464.5Q1072,465 1077,465Q1082,465 1082,465.5Q1082,466 1085,466Q1088,466 1088,466.5Q1088,467 1091,467Q1094,467 1094,467.5Q1094,468 1098.5,468.5Q1103,469 1103,469.5Q1103,470 1106.5,470.5Q1110,471 1110,471.5Q1110,472 1111.5,472Q1113,472 1113,472.5Q1113,473 1114.5,473Q1116,473 1116,473.5Q1116,474 1119,474.5Q1122,475 1122,475.5Q1122,476 1123,476Q1124,476 1124,476.5Q1124,477 1125.5,477Q1127,477 1127,477.5Q1127,478 1128,478Q1129,478 1129,478.5Q1129,479 1130,479Q1131,479 1131,479.5Q1131,480 1132.5,480Q1134,480 1134,480.5Q1134,481 1135,481Q1136,481 1136,481.5Q1136,482 1137,482Q1138,482 1138,482.5Q1138,483 1141,484Q1144,485 1144.5,486Q1145,487 1148,488Q1151,489 1151.5,490Q1152,491 1153,491Q1154,491 1154.5,492Q1155,493 1156,493Q1157,493 1158,494.5Q1159,496 1160,496Q1161,496 1161.5,497Q1162,498 1163,498Q1164,498 1165,499.5Q1166,501 1167,501Q1168,501 1170,503.5Q1172,506 1173,506Q1174,506 1174,506.5Q1174,507 1174.5,507Q1175,507 1175,507.5Q1175,508 1175.5,508Q1176,508 1176,508.5Q1176,509 1176.5,509Q1177,509 1177,509.5Q1177,510 1177.5,510Q1178,510 1178,510.5Q1178,511 1178.5,511Q1179,511 1179,511.5Q1179,512 1179.5,512Q1180,512 1180,512.5Q1180,513 1180.5,513Q1181,513 1181,513.5Q1181,514 1181.5,514Q1182,514 1182,514.5Q1182,515 1185,517.5Q1188,520 1188,521Q1188,522 1189.5,523Q1191,524 1191,525Q1191,526 1192,526.5Q1193,527 1193,528Q1193,529 1195,530.5Q1197,532 1197,533Q1197,534 1198,534.5Q1199,535 1199,536Q1199,537 1200,537.5Q1201,538 1201,539Q1201,540 1201.5,540Q1202,540 1202.5,541.5Q1203,543 1204,543.5Q1205,544 1205,545Q1205,546 1205.5,546Q1206,546 1206,547Q1206,548 1206.5,548Q1207,548 1207,549Q1207,550 1207.5,550Q1208,550 1208,551Q1208,552 1208.5,552Q1209,552 1209,553Q1209,554 1209.5,554Q1210,554 1210,555Q1210,556 1210.5,556Q1211,556 1211,557Q1211,558 1211.5,558Q1212,558 1212,559.5Q1212,561 1212.5,561Q1213,561 1213,562Q1213,563 1213.5,563Q1214,563 1214,564Q1214,565 1214.5,565Q1215,565 1215,566Q1215,567 1215.5,567Q1216,567 1216,568.5Q1216,570 1216.5,570Q1217,570 1217.5,572.5Q1218,575 1218.5,575Q1219,575 1219,576.5Q1219,578 1219.5,578Q1220,578 1220,580Q1220,582 1220.5,582Q1221,582 1221,584Q1221,586 1221.5,586Q1222,586 1222,588Q1222,590 1222.5,590Q1223,590 1223,592Q1223,594 1223.5,594Q1224,594 1224,596.5Q1224,599 1224.5,599Q1225,599 1225.5,605.5Q1226,612 1226.5,612Q1227,612 1227,617Q1227,622 1227.5,622Q1228,622 1228,640.5Q1228,659 1227.5,659Q1227,659 1226.5,667.5Q1226,676 1225.5,676Q1225,676 1225,679Q1225,682 1224.5,682Q1224,682 1224,684.5Q1224,687 1223.5,687Q1223,687 1223,689.5Q1223,692 1222.5,692Q1222,692 1221.5,696.5Q1221,701 1220.5,701Q1220,701 1219.5,704.5Q1219,708 1218.5,708Q1218,708 1218,709.5Q1218,711 1217.5,711Q1217,711 1217,712.5Q1217,714 1216.5,714Q1216,714 1215.5,717Q1215,720 1214.5,720Q1214,720 1214,721Q1214,722 1213.5,722Q1213,722 1212.5,725Q1212,728 1211.5,728Q1211,728 1211,729Q1211,730 1210.5,730Q1210,730 1209.5,733Q1209,736 1208.5,736Q1208,736 1208,737Q1208,738 1207.5,738Q1207,738 1207,739Q1207,740 1206.5,740Q1206,740 1206,741Q1206,742 1205.5,742Q1205,742 1205,743.5Q1205,745 1204.5,745Q1204,745 1204,746Q1204,747 1203.5,747Q1203,747 1203,748Q1203,749 1202.5,749Q1202,749 1202,750Q1202,751 1201.5,751Q1201,751 1201,752Q1201,753 1200.5,753Q1200,753 1200,754Q1200,755 1199.5,755Q1199,755 1199,756Q1199,757 1198.5,757Q1198,757 1198,758Q1198,759 1197.5,759Q1197,759 1196,762Q1195,765 1194,765.5Q1193,766 1192,769Q1191,772 1190,772.5Q1189,773 1189,774Q1189,775 1188.5,775Q1188,775 1188,776Q1188,777 1187,777.5Q1186,778 1186,779Q1186,780 1185.5,780Q1185,780 1185,781Q1185,782 1184,782.5Q1183,783 1183,784Q1183,785 1181.5,786Q1180,787 1180,788Q1180,789 1179,789.5Q1178,790 1178,791Q1178,792 1177,792.5Q1176,793 1176,794Q1176,795 1175,795.5Q1174,796 1174,797Q1174,798 1172.5,799Q1171,800 1171,801Q1171,802 1168.5,804Q1166,806 1166,807Q1166,808 1164,809.5Q1162,811 1162,812Q1162,813 1159,815.5Q1156,818 1156,819Q1156,820 1155.5,820Q1155,820 1155,820.5Q1155,821 1154.5,821Q1154,821 1154,821.5Q1154,822 1153.5,822Q1153,822 1153,822.5Q1153,823 1152.5,823Q1152,823 1152,823.5Q1152,824 1151.5,824Q1151,824 1151,824.5Q1151,825 1150.5,825Q1150,825 1150,825.5Q1150,826 1149.5,826Q1149,826 1149,826.5Q1149,827 1148.5,827Q1148,827 1148,827.5Q1148,828 1147.5,828Q1147,828 1147,828.5Q1147,829 1146.5,829Q1146,829 1146,829.5Q1146,830 1145.5,830Q1145,830 1145,830.5Q1145,831 1144.5,831Q1144,831 1144,831.5Q1144,832 1143.5,832Q1143,832 1143,832.5Q1143,833 1142.5,833Q1142,833 1142,833.5Q1142,834 1141.5,834Q1141,834 1141,834.5Q1141,835 1140.5,835Q1140,835 1140,835.5Q1140,836 1139.5,836Q1139,836 1139,836.5Q1139,837 1138.5,837Q1138,837 1138,837.5Q1138,838 1137.5,838Q1137,838 1137,838.5Q1137,839 1136.5,839Q1136,839 1136,839.5Q1136,840 1135.5,840Q1135,840 1135,840.5Q1135,841 1134.5,841Q1134,841 1134,841.5Q1134,842 1133.5,842Q1133,842 1130.5,845Q1128,848 1127,848Q1126,848 1124.5,850Q1123,852 1122,852Q1121,852 1121,852.5Q1121,853 1120.5,853Q1120,853 1119,854.5Q1118,856 1117,856Q1116,856 1114.5,858Q1113,860 1112,860Q1111,860 1111,860.5Q1111,861 1110.5,861Q1110,861 1109.5,862Q1109,863 1108,863Q1107,863 1106,864.5Q1105,866 1104,866Q1103,866 1102.5,867Q1102,868 1101,868Q1100,868 1100,868.5Q1100,869 1098.5,869.5Q1097,870 1096.5,871Q1096,872 1094,872.5Q1092,873 1092,873.5Q1092,874 1090.5,874.5Q1089,875 1088.5,876Q1088,877 1086,877.5Q1084,878 1083.5,879Q1083,880 1082,880Q1081,880 1081,880.5Q1081,881 1080,881Q1079,881 1079,881.5Q1079,882 1078,882Q1077,882 1077,882.5Q1077,883 1076,883Q1075,883 1075,883.5Q1075,884 1074,884Q1073,884 1073,884.5Q1073,885 1072,885Q1071,885 1071,885.5Q1071,886 1070,886Q1069,886 1069,886.5Q1069,887 1068,887Q1067,887 1067,887.5Q1067,888 1066,888Q1065,888 1065,888.5Q1065,889 1064,889Q1063,889 1063,889.5Q1063,890 1062,890Q1061,890 1061,890.5Q1061,891 1060,891Q1059,891 1059,891.5Q1059,892 1058,892Q1057,892 1057,892.5Q1057,893 1055.5,893Q1054,893 1054,893.5Q1054,894 1053,894Q1052,894 1052,894.5Q1052,895 1051,895Q1050,895 1050,895.5Q1050,896 1048.5,896Q1047,896 1047,896.5Q1047,897 1046,897Q1045,897 1045,897.5Q1045,898 1043.5,898Q1042,898 1042,898.5Q1042,899 1040.5,899Q1039,899 1039,899.5Q1039,900 1037.5,900Q1036,900 1036,900.5Q1036,901 1034.5,901Q1033,901 1033,901.5Q1033,902 1031.5,902Q1030,902 1030,902.5Q1030,903 1028.5,903Q1027,903 1027,903.5Q1027,904 1025.5,904Q1024,904 1024,904.5Q1024,905 1022,905Q1020,905 1020,905.5Q1020,906 1018,906Q1016,906 1016,906.5Q1016,907 1014,907Q1012,907 1012,907.5Q1012,908 1009.5,908Q1007,908 1007,908.5Q1007,909 1004.5,909Q1002,909 1002,909.5Q1002,910 999.5,910Q997,910 997,910.5Q997,911 990,911.5Q983,912 983,912.5Q983,913 977,913Q971,913 971,913.5Q971,914 970.5,914Q970,914 970,915.5Q970,917 971,917Q972,917 972,917.5Q972,918 973.5,918.5Q975,919 977,921.5Q979,924 980,924Q981,924 981,924.5Q981,925 981.5,925Q982,925 982,925.5Q982,926 982.5,926Q983,926 983,926.5Q983,927 983.5,927Q984,927 986.5,930Q989,933 990,933Q991,933 991,933.5Q991,934 992.5,935Q994,936 994,937Q994,938 997,940.5Q1000,943 1000,944Q1000,945 1002,946.5Q1004,948 1004,949Q1004,950 1005.5,951Q1007,952 1007,953Q1007,954 1007.5,954Q1008,954 1008,954.5Q1008,955 1009,955.5Q1010,956 1010,957Q1010,958 1011,958.5Q1012,959 1013,962Q1014,965 1015,965.5Q1016,966 1016,967Q1016,968 1016.5,968Q1017,968 1017,969Q1017,970 1017.5,970Q1018,970 1018,971Q1018,972 1018.5,972Q1019,972 1019,973Q1019,974 1019.5,974Q1020,974 1020,975Q1020,976 1020.5,976Q1021,976 1021,977Q1021,978 1021.5,978Q1022,978 1022,979.5Q1022,981 1022.5,981Q1023,981 1023,982Q1023,983 1023.5,983Q1024,983 1024,984.5Q1024,986 1024.5,986Q1025,986 1025,987Q1025,988 1025.5,988Q1026,988 1026.5,991.5Q1027,995 1027.5,995Q1028,995 1028,996.5Q1028,998 1028.5,998Q1029,998 1029.5,1003Q1030,1008 1030.5,1008Q1031,1008 1031,1011Q1031,1014 1031.5,1014Q1032,1014 1032,1028.5Q1032,1043 1031.5,1043Q1031,1043 1031,1046.5Q1031,1050 1030.5,1050Q1030,1050 1030,1052.5Q1030,1055 1029.5,1055Q1029,1055 1029,1057.5Q1029,1060 1028.5,1060Q1028,1060 1028,1062Q1028,1064 1027.5,1064Q1027,1064 1026.5,1067Q1026,1070 1025.5,1070Q1025,1070 1025,1071Q1025,1072 1024.5,1072Q1024,1072 1024,1073.5Q1024,1075 1023.5,1075Q1023,1075 1023,1076Q1023,1077 1022.5,1077Q1022,1077 1022,1078.5Q1022,1080 1021.5,1080Q1021,1080 1021,1081Q1021,1082 1020.5,1082Q1020,1082 1019,1085Q1018,1088 1017,1088.5Q1016,1089 1015,1092Q1014,1095 1013,1095.5Q1012,1096 1012,1097Q1012,1098 1011,1098.5Q1010,1099 1010,1100Q1010,1101 1009,1101.5Q1008,1102 1008,1103Q1008,1104 1006,1105.5Q1004,1107 1004,1108Q1004,1109 1003.5,1109Q1003,1109 1003,1109.5Q1003,1110 1002.5,1110Q1002,1110 1002,1110.5Q1002,1111 999,1113.5Q996,1116 996,1117Q996,1118 995.5,1118Q995,1118 993,1120.5Q991,1123 990,1123Q989,1123 987.5,1125Q986,1127 985,1127Q984,1127 982.5,1129Q981,1131 980,1131Q979,1131 978,1132.5Q977,1134 976,1134Q975,1134 975,1134.5Q975,1135 973.5,1135.5Q972,1136 971.5,1137Q971,1138 969,1138.5Q967,1139 966.5,1140Q966,1141 965,1141Q964,1141 964,1141.5Q964,1142 963,1142Q962,1142 962,1142.5Q962,1143 961,1143Q960,1143 960,1143.5Q960,1144 959,1144Q958,1144 958,1144.5Q958,1145 957,1145Q956,1145 956,1145.5Q956,1146 954.5,1146Q953,1146 953,1146.5Q953,1147 952,1147Q951,1147 951,1147.5Q951,1148 950,1148Q949,1148 949,1148.5Q949,1149 948,1149Q947,1149 947,1149.5Q947,1150 945.5,1150Q944,1150 944,1150.5Q944,1151 942.5,1151Q941,1151 941,1151.5Q941,1152 939.5,1152Q938,1152 938,1152.5Q938,1153 936.5,1153Q935,1153 935,1153.5Q935,1154 933.5,1154Q932,1154 932,1154.5Q932,1155 930,1155Q928,1155 928,1155.5Q928,1156 926,1156Q924,1156 924,1156.5Q924,1157 921,1157Q918,1157 918,1157.5Q918,1158 915,1158Q912,1158 912,1158.5Q912,1159 907,1159Q902,1159 902,1159.5Q902,1160 889.5,1160Q877,1160 877,1159.5Q877,1159 872.5,1159Q868,1159 868,1158.5Q868,1158 861.5,1157.5Q855,1157 855,1156.5Q855,1156 853,1156Q851,1156 851,1155.5Q851,1155 849,1155Q847,1155 847,1154.5Q847,1154 843,1153.5Q839,1153 839,1152.5Q839,1152 837.5,1152Q836,1152 836,1151.5Q836,1151 833,1150.5Q830,1150 830,1149.5Q830,1149 829,1149Q828,1149 828,1148.5Q828,1148 825,1147.5Q822,1147 822,1146.5Q822,1146 821,1146Q820,1146 820,1145.5Q820,1145 818.5,1145Q817,1145 817,1144.5Q817,1144 816,1144Q815,1144 815,1143.5Q815,1143 814,1143Q813,1143 813,1142.5Q813,1142 812,1142Q811,1142 811,1141.5Q811,1141 810,1141Q809,1141 809,1140.5Q809,1140 808,1140Q807,1140 807,1139.5Q807,1139 806,1139Q805,1139 805,1138.5Q805,1138 804,1138Q803,1138 803,1137.5Q803,1137 802,1137Q801,1137 801,1136.5Q801,1136 798,1135Q795,1134 794.5,1133Q794,1132 792,1131.5Q790,1131 790,1130.5Q790,1130 788.5,1129.5Q787,1129 786.5,1128Q786,1127 785,1127Q784,1127 784,1126.5Q784,1126 783,1126Q782,1126 781.5,1125Q781,1124 779,1123.5Q777,1123 777,1122.5Q777,1122 776.5,1122Q776,1122 775.5,1121Q775,1120 774,1120Q773,1120 771.5,1118Q770,1116 769,1116Q768,1116 767,1114.5Q766,1113 765,1113Q764,1113 762,1110.5Q760,1108 759,1108Q758,1108 756.5,1106Q755,1104 752.5,1104Q750,1104 750,1104.5Q750,1105 749.5,1105Q749,1105 749,1105.5Q749,1106 748.5,1106Q748,1106 748,1106.5Q748,1107 747.5,1107Q747,1107 747,1107.5Q747,1108 746.5,1108Q746,1108 746,1108.5Q746,1109 745.5,1109Q745,1109 745,1109.5Q745,1110 744.5,1110Q744,1110 744,1110.5Q744,1111 743.5,1111Q743,1111 740.5,1114Q738,1117 737,1117Q736,1117 736,1117.5Q736,1118 734,1119.5Q732,1121 731.5,1127Q731,1133 730.5,1133Q730,1133 729.5,1137.5Q729,1142 728.5,1142Q728,1142 728,1143.5Q728,1145 727.5,1145Q727,1145 727,1146.5Q727,1148 726.5,1148Q726,1148 725.5,1151Q725,1154 724.5,1154Q724,1154 724,1155Q724,1156 723.5,1156Q723,1156 723,1157Q723,1158 722.5,1158Q722,1158 722,1159Q722,1160 721.5,1160Q721,1160 721,1161Q721,1162 720.5,1162Q720,1162 719,1165Q718,1168 717.5,1168Q717,1168 716.5,1169.5Q716,1171 715,1171.5Q714,1172 714,1173Q714,1174 713.5,1174Q713,1174 713,1174.5Q713,1175 712.5,1175Q712,1175 712,1175.5Q712,1176 711.5,1176Q711,1176 711,1176.5Q711,1177 710.5,1177Q710,1177 710,1177.5Q710,1178 709.5,1178Q709,1178 709,1178.5Q709,1179 708.5,1179Q708,1179 705.5,1182Q703,1185 702,1185Q701,1185 700,1186.5Q699,1188 698,1188Q697,1188 697,1188.5Q697,1189 696,1189Q695,1189 695,1189.5Q695,1190 694,1190Q693,1190 693,1190.5Q693,1191 692,1191Q691,1191 691,1191.5Q691,1192 689.5,1192Q688,1192 688,1192.5Q688,1193 686.5,1193Q685,1193 685,1193.5Q685,1194 683.5,1194Q682,1194 682,1194.5Q682,1195 679.5,1195Q677,1195 677,1195.5Q677,1196 666.5,1196Q656,1196 656,1195.5Q656,1195 654,1195Q652,1195 652,1194.5Q652,1194 649,1193.5Q646,1193 646,1192.5Q646,1192 645,1192Q644,1192 644,1191.5Q644,1191 641,1190Q638,1189 637.5,1188Q637,1187 636,1187Q635,1187 635,1186.5Q635,1186 633.5,1185Q632,1184 632,1183Q632,1182 630.5,1181Q629,1180 629,1179Q629,1178 628.5,1178Q628,1178 628,1177Q628,1176 627.5,1176Q627,1176 627,1174Q627,1172 626.5,1172Q626,1172 626,1164Q626,1156 626.5,1156Q627,1156 627,1153.5Q627,1151 627.5,1151Q628,1151 628,1149.5Q628,1148 628.5,1148Q629,1148 629.5,1145Q630,1142 630.5,1142Q631,1142 631,1141Q631,1140 631.5,1140Q632,1140 632,1139Q632,1138 632.5,1138Q633,1138 633,1136.5Q633,1135 633.5,1135Q634,1135 635,1132Q636,1129 635.5,1129Q635,1129 635,1128Q635,1127 634,1127Q633,1127 632.5,1126Q632,1125 631,1125Q630,1125 629,1123.5Q628,1122 626.5,1122Q625,1122 625,1122.5Q625,1123 624,1123Q623,1123 623,1123.5Q623,1124 622,1124Q621,1124 621,1124.5Q621,1125 620,1125Q619,1125 619,1125.5Q619,1126 618,1126Q617,1126 617,1126.5Q617,1127 616,1127Q615,1127 615,1127.5Q615,1128 614,1128Q613,1128 613,1128.5Q613,1129 611.5,1129Q610,1129 610,1129.5Q610,1130 609,1130Q608,1130 608,1130.5Q608,1131 607,1131Q606,1131 606,1131.5Q606,1132 604.5,1132Q603,1132 603,1132.5Q603,1133 600,1133.5Q597,1134 597,1134.5Q597,1135 596,1135Q595,1135 595,1135.5Q595,1136 593,1136Q591,1136 591,1136.5Q591,1137 589.5,1137Q588,1137 588,1137.5Q588,1138 586,1138Q584,1138 584,1138.5Q584,1139 583.5,1139Q583,1139 583,1141.5Q583,1144 583.5,1144Q584,1144 584,1145Q584,1146 584.5,1146Q585,1146 585,1147Q585,1148 585.5,1148Q586,1148 586,1149.5Q586,1151 586.5,1151Q587,1151 587,1152Q587,1153 587.5,1153Q588,1153 588,1155Q588,1157 588.5,1157Q589,1157 589.5,1164Q590,1171 589.5,1171Q589,1171 589,1173Q589,1175 588.5,1175Q588,1175 587,1178Q586,1181 585,1181.5Q584,1182 584,1183Q584,1184 583.5,1184Q583,1184 582.5,1185Q582,1186 581,1186Q580,1186 579,1187.5Q578,1189 577,1189Q576,1189 576,1189.5Q576,1190 575,1190Q574,1190 574,1190.5Q574,1191 573,1191Q572,1191 572,1191.5Q572,1192 570.5,1192Q569,1192 569,1192.5Q569,1193 567.5,1193Q566,1193 566,1193.5Q566,1194 564.5,1194Q563,1194 563,1194.5Q563,1195 561,1195Q559,1195 559,1195.5Q559,1196 550,1196Q541,1196 541,1195.5Q541,1195 538.5,1195Q536,1195 536,1194.5Q536,1194 532.5,1193.5Q529,1193 529,1192.5Q529,1192 528,1192Q527,1192 527,1191.5Q527,1191 524,1190Q521,1189 521,1188.5Q521,1188 519.5,1187.5Q518,1187 516.5,1185Q515,1183 514,1183Q513,1183 513,1182.5Q513,1182 511.5,1181Q510,1180 510,1179Q510,1178 508,1176.5Q506,1175 506,1174Q506,1173 504.5,1172Q503,1171 503,1170Q503,1169 502.5,1169Q502,1169 502,1168Q502,1167 501.5,1167Q501,1167 501,1166Q501,1165 500.5,1165Q500,1165 500,1164Q500,1163 499.5,1163Q499,1163 499,1162Q499,1161 498.5,1161Q498,1161 498,1159.5Q498,1158 497.5,1158Q497,1158 497,1157Q497,1156 496.5,1156Q496,1156 496,1154.5Q496,1153 495.5,1153Q495,1153 495,1151Q495,1149 494.5,1149Q494,1149 494,1147Q494,1145 493.5,1145Q493,1145 492.5,1141Q492,1137 491.5,1137Q491,1137 490.5,1131Q490,1125 489.5,1125Q489,1125 488.5,1124Q488,1123 487,1123Q486,1123 485.5,1122Q485,1121 484,1121Q483,1121 483,1120.5Q483,1120 482.5,1120Q482,1120 481,1118.5Q480,1117 479,1117Q478,1117 476.5,1115Q475,1113 474,1113Q473,1113 473,1112.5Q473,1112 472.5,1112Q472,1112 472,1111.5Q472,1111 471.5,1111Q471,1111 471,1110.5Q471,1110 470.5,1110Q470,1110 470,1109.5Q470,1109 469.5,1109Q469,1109 469,1108.5Q469,1108 468.5,1108Q468,1108 468,1107.5Q468,1107 467.5,1107Q467,1107 467,1106.5Q467,1106 466.5,1106Q466,1106 466,1105.5Q466,1105 463,1102.5Q460,1100 460,1099Q460,1098 458,1096.5Q456,1095 456,1094Q456,1093 455.5,1093Q455,1093 455,1092.5Q455,1092 453.5,1091Q452,1090 452,1089Q452,1088 451,1087.5Q450,1087 449.5,1085Q449,1083 448,1082.5Q447,1082 446.5,1080Q446,1078 445,1077.5Q444,1077 443.5,1075Q443,1073 442,1072.5Q441,1072 441,1071Q441,1070 440.5,1070Q440,1070 440,1069Q440,1068 439.5,1068Q439,1068 439,1067Q439,1066 438.5,1066Q438,1066 438,1065Q438,1064 437.5,1064Q437,1064 437,1063Q437,1062 436.5,1062Q436,1062 436,1061Q436,1060 435.5,1060Q435,1060 435,1059Q435,1058 434.5,1058Q434,1058 433.5,1057Q433,1056 431,1056.5Q429,1057 427.5,1059Q426,1061 425,1061Q424,1061 423.5,1062Q423,1063 422,1063Q421,1063 419.5,1065Q418,1067 417,1067Q416,1067 416,1067.5Q416,1068 414.5,1068.5Q413,1069 412.5,1070Q412,1071 410,1071.5Q408,1072 407.5,1073Q407,1074 405,1074.5Q403,1075 402.5,1076Q402,1077 400,1077.5Q398,1078 397.5,1079Q397,1080 396,1080Q395,1080 395,1080.5Q395,1081 394,1081Q393,1081 393,1081.5Q393,1082 392,1082Q391,1082 391,1082.5Q391,1083 390,1083Q389,1083 389,1083.5Q389,1084 388,1084Q387,1084 387,1084.5Q387,1085 386,1085Q385,1085 385,1085.5Q385,1086 384,1086Q383,1086 383,1086.5Q383,1087 382,1087Q381,1087 381,1087.5Q381,1088 380,1088Q379,1088 379,1088.5Q379,1089 378,1089Q377,1089 377,1089.5Q377,1090 375.5,1090Q374,1090 374,1090.5Q374,1091 373,1091Q372,1091 372,1091.5Q372,1092 371,1092Q370,1092 370,1092.5Q370,1093 368.5,1093Q367,1093 367,1093.5Q367,1094 364,1094.5Q361,1095 361,1095.5Q361,1096 360,1096Q359,1096 359,1096.5Q359,1097 357.5,1097Q356,1097 356,1097.5Q356,1098 354.5,1098Q353,1098 353,1098.5Q353,1099 351.5,1099Q350,1099 350,1099.5Q350,1100 348.5,1100Q347,1100 347,1100.5Q347,1101 345.5,1101Q344,1101 344,1101.5Q344,1102 342,1102Q340,1102 340,1102.5Q340,1103 336.5,1103.5Q333,1104 333,1104.5Q333,1105 330.5,1105Q328,1105 328,1105.5Q328,1106 325.5,1106Q323,1106 323,1106.5Q323,1107 320.5,1107Q318,1107 318,1107.5Q318,1108 310.5,1108.5Q303,1109 303,1109.5Q303,1110 296.5,1110Q290,1110 290,1110.5Q290,1111 277,1111Q264,1111 264,1110.5Q264,1110 258.5,1110Q253,1110 253,1109.5Q253,1109 249,1109Q245,1109 245,1108.5Q245,1108 242,1108Q239,1108 239,1107.5Q239,1107 234,1106.5Q229,1106 229,1105.5Q229,1105 227.5,1105Q226,1105 226,1104.5Q226,1104 224,1104Q222,1104 222,1103.5Q222,1103 220.5,1103Q219,1103 219,1102.5Q219,1102 217.5,1102Q216,1102 216,1101.5Q216,1101 213,1100.5Q210,1100 210,1099.5Q210,1099 207.5,1098.5Q205,1098 205,1097.5Q205,1097 204,1097Q203,1097 203,1096.5Q203,1096 201.5,1096Q200,1096 200,1095.5Q200,1095 199,1095Q198,1095 198,1094.5Q198,1094 197,1094Q196,1094 196,1093.5Q196,1093 193,1092Q190,1091 189.5,1090Q189,1089 187,1088.5Q185,1088 184.5,1087Q184,1086 182,1085.5Q180,1085 179,1083.5Q178,1082 177,1082Q176,1082 175,1080.5Q174,1079 173,1079Q172,1079 170.5,1077Q169,1075 168,1075Q167,1075 167,1074.5Q167,1074 166.5,1074Q166,1074 166,1073.5Q166,1073 165.5,1073Q165,1073 165,1072.5Q165,1072 164.5,1072Q164,1072 164,1071.5Q164,1071 163.5,1071Q163,1071 163,1070.5Q163,1070 162.5,1070Q162,1070 162,1069.5Q162,1069 161.5,1069Q161,1069 161,1068.5Q161,1068 160.5,1068Q160,1068 160,1067.5Q160,1067 159.5,1067Q159,1067 159,1066.5Q159,1066 158.5,1066Q158,1066 158,1065.5Q158,1065 155,1062.5Q152,1060 152,1059Q152,1058 150,1056.5Q148,1055 148,1054Q148,1053 147,1052.5Q146,1052 146,1051Q146,1050 145,1049.5Q144,1049 144,1048Q144,1047 143.5,1047Q143,1047 142.5,1045.5Q142,1044 141,1043.5Q140,1043 139.5,1041Q139,1039 138,1038.5Q137,1038 137,1037Q137,1036 136.5,1036Q136,1036 136,1035Q136,1034 135.5,1034Q135,1034 135,1033Q135,1032 134.5,1032Q134,1032 134,1031Q134,1030 133.5,1030Q133,1030 133,1029Q133,1028 132.5,1028Q132,1028 132,1026.5Q132,1025 131.5,1025Q131,1025 131,1024Q131,1023 130.5,1023Q130,1023 130,1022Q130,1021 129.5,1021Q129,1021 129,1019.5Q129,1018 128.5,1018Q128,1018 128,1016.5Q128,1015 127.5,1015Q127,1015 127,1013Q127,1011 126.5,1011Q126,1011 125.5,1007.5Q125,1004 124.5,1004Q124,1004 124,1002Q124,1000 123.5,1000Q123,1000 123,998Q123,996 122.5,996Q122,996 122,993Q122,990 121.5,990Q121,990 121,985.5Q121,981 120.5,981Q120,981 120,967Q120,953 120.5,953Q121,953 121,949Q121,945 121.5,945Q122,945 122,942Q122,939 122.5,939Q123,939 123,936.5Q123,934 123.5,934Q124,934 124.5,930Q125,926 125.5,926Q126,926 126,924.5Q126,923 126.5,923Q127,923 127,921.5Q127,920 127.5,920Q128,920 128,918.5Q128,917 128.5,917Q129,917 129.5,914Q130,911 130.5,911Q131,911 131,910Q131,909 131.5,909Q132,909 132,908Q132,907 132.5,907Q133,907 133,905.5Q133,904 133.5,904Q134,904 134,903Q134,902 134.5,902Q135,902 135,901Q135,900 135.5,900Q136,900 136,899Q136,898 136.5,898Q137,898 137,897Q137,896 137.5,896Q138,896 139,893Q140,890 141,889.5Q142,889 142.5,887Q143,885 144,884.5Q145,884 145,883Q145,882 146,881.5Q147,881 147,880Q147,879 148,878.5Q149,878 149,877Q149,876 149.5,876Q150,876 150,875.5Q150,875 151,874.5Q152,874 152,873Q152,872 153.5,871Q155,870 155,869Q155,868 155.5,868Q156,868 156,867.5Q156,867 158,865.5Q160,864 160,863Q160,862 162,860.5Q164,859 164,858Q164,857 164.5,857Q165,857 167.5,854Q170,851 171,851Q172,851 172,850.5Q172,850 172.5,850Q173,850 173,849.5Q173,849 173.5,849Q174,849 174,848.5Q174,848 174.5,848Q175,848 175,847.5Q175,847 175.5,847Q176,847 176,846.5Q176,846 176.5,846Q177,846 179.5,843Q182,840 183,840Q184,840 185.5,838Q187,836 188,836Q189,836 190,834.5Q191,833 192,833Q193,833 194,831.5Q195,830 196,830Q197,830 198,828.5Q199,827 200,827Q201,827 201,826.5Q201,826 202.5,825.5Q204,825 204.5,824Q205,823 207,822.5Q209,822 209.5,821Q210,820 213,819Q216,818 216.5,817Q217,816 220,815Q223,814 223.5,813Q224,812 225,812Q226,812 226,811.5Q226,811 227,811Q228,811 228,810.5Q228,810 229,810Q230,810 230,809.5Q230,809 231,809Q232,809 232,808.5Q232,808 233,808Q234,808 234,807.5Q234,807 235,807Q236,807 236,806.5Q236,806 237.5,806Q239,806 239,805.5Q239,805 240,805Q241,805 241,804.5Q241,804 242,804Q243,804 243,803.5Q243,803 244,803Q245,803 245,802.5Q245,802 247.5,801.5Q250,801 250,800Q250,799 249.5,799Q249,799 249,798.5Q249,798 247.5,798Q246,798 246,797.5Q246,797 244.5,797Q243,797 243,796.5Q243,796 241.5,796Q240,796 240,795.5Q240,795 239,795Q238,795 238,794.5Q238,794 236.5,794Q235,794 235,793.5Q235,793 234,793Q233,793 233,792.5Q233,792 232,792Q231,792 231,791.5Q231,791 229.5,791Q228,791 228,790.5Q228,790 227,790Q226,790 226,789.5Q226,789 225,789Q224,789 224,788.5Q224,788 222.5,788Q221,788 221,787.5Q221,787 220,787Q219,787 219,786.5Q219,786 218,786Q217,786 217,785.5Q217,785 216,785Q215,785 215,784.5Q215,784 214,784Q213,784 213,783.5Q213,783 210,782Q207,781 206.5,780Q206,779 205,779Q204,779 204,778.5Q204,778 201,777Q198,776 197.5,775Q197,774 194,773Q191,772 190.5,771Q190,770 188,769.5Q186,769 185.5,768Q185,767 184,767Q183,767 182.5,766Q182,765 181,765Q180,765 179.5,764Q179,763 178,763Q177,763 176,761.5Q175,760 174,760Q173,760 172.5,759Q172,758 171,758Q170,758 169.5,757Q169,756 168,756Q167,756 167,755.5Q167,755 166.5,755Q166,755 165.5,754Q165,753 164,753Q163,753 161.5,751Q160,749 159,749Q158,749 156.5,747Q155,745 154,745Q153,745 151,742.5Q149,740 148,740Q147,740 147,739.5Q147,739 146.5,739Q146,739 146,738.5Q146,738 145.5,738Q145,738 145,737.5Q145,737 144.5,737Q144,737 144,736.5Q144,736 143.5,736Q143,736 140.5,733Q138,730 137,730Q136,730 136,729.5Q136,729 135.5,729Q135,729 135,728.5Q135,728 134.5,728Q134,728 134,727.5Q134,727 133.5,727Q133,727 133,726.5Q133,726 132.5,726Q132,726 132,725.5Q132,725 131.5,725Q131,725 131,724.5Q131,724 130.5,724Q130,724 130,723.5Q130,723 129.5,723Q129,723 129,722.5Q129,722 128.5,722Q128,722 128,721.5Q128,721 127.5,721Q127,721 127,720.5Q127,720 126.5,720Q126,720 126,719.5Q126,719 123,716.5Q120,714 120,713Q120,712 119.5,712Q119,712 119,711.5Q119,711 118.5,711Q118,711 118,710.5Q118,710 117.5,710Q117,710 117,709.5Q117,709 114,706.5Q111,704 111,703Q111,702 110.5,702Q110,702 110,701.5Q110,701 108,699.5Q106,698 106,697Q106,696 103.5,694Q101,692 101,691Q101,690 99.5,689Q98,688 98,687Q98,686 96.5,685Q95,684 95,683Q95,682 94.5,682Q94,682 94,681.5Q94,681 93,680.5Q92,680 92,679Q92,678 90.5,677Q89,676 89,675Q89,674 88.5,674Q88,674 87.5,672.5Q87,671 85.5,670Q84,669 84,668Q84,667 83.5,667Q83,667 82.5,665.5Q82,664 81,663.5Q80,663 79.5,661Q79,659 78,658.5Q77,658 77,657Q77,656 76.5,656Q76,656 75.5,654.5Q75,653 74,652.5Q73,652 72.5,650Q72,648 71,647.5Q70,647 70,646Q70,645 69.5,645Q69,645 68.5,643Q68,641 67,640.5Q66,640 66,639Q66,638 65.5,638Q65,638 65,637Q65,636 64.5,636Q64,636 64,635Q64,634 63.5,634Q63,634 63,633Q63,632 62.5,632Q62,632 61,629Q60,626 59,625.5Q58,625 58,624Q58,623 57.5,623Q57,623 57,622Q57,621 56.5,621Q56,621 56,619.5Q56,618 55.5,618Q55,618 55,617Q55,616 54.5,616Q54,616 54,615Q54,614 53.5,614Q53,614 53,613Q53,612 52.5,612Q52,612 52,611Q52,610 51.5,610Q51,610 51,609Q51,608 50.5,608Q50,608 50,606.5Q50,605 49.5,605Q49,605 49,604Q49,603 48.5,603Q48,603 48,601.5Q48,600 47.5,600Q47,600 47,599Q47,598 46.5,598Q46,598 45.5,595Q45,592 44.5,592Q44,592 44,591Q44,590 43.5,590Q43,590 43,588.5Q43,587 42.5,587Q42,587 42,585.5Q42,584 41.5,584Q41,584 41,582.5Q41,581 40.5,581Q40,581 40,579.5Q40,578 39.5,578Q39,578 39,576.5Q39,575 38.5,575Q38,575 38,573Q38,571 37.5,571Q37,571 37,569.5Q37,568 36.5,568Q36,568 36,566Q36,564 35.5,564Q35,564 34.5,560Q34,556 33.5,556Q33,556 33,554Q33,552 32.5,552Q32,552 31.5,547Q31,542 30.5,542Q30,542 30,538.5Q30,535 29.5,535Q29,535 29,532Q29,529 28.5,529Q28,529 28,524.5Q28,520 27.5,520Q27,520 27,510.5Q27,501 26.5,501Q26,501 26,498.5Q26,496 26.5,496Q27,496 27,485Q27,474 27.5,474Q28,474 28.5,466Q29,458 29.5,458Q30,458 30,455.5Q30,453 30.5,453Q31,453 31,450.5Q31,448 31.5,448Q32,448 32,445.5Q32,443 32.5,443Q33,443 33,440.5Q33,438 33.5,438Q34,438 34,436.5Q34,435 34.5,435Q35,435 35,433.5Q35,432 35.5,432Q36,432 36,430Q36,428 36.5,428Q37,428 37,426.5Q37,425 37.5,425Q38,425 38,424Q38,423 38.5,423Q39,423 39,421.5Q39,420 39.5,420Q40,420 40,418.5Q40,417 40.5,417Q41,417 41.5,414Q42,411 42.5,411Q43,411 43,410Q43,409 43.5,409Q44,409 44,408Q44,407 44.5,407Q45,407 45,405.5Q45,404 45.5,404Q46,404 46,403Q46,402 46.5,402Q47,402 47,401Q47,400 47.5,400Q48,400 48,399Q48,398 48.5,398Q49,398 49,397Q49,396 49.5,396Q50,396 50,395Q50,394 50.5,394Q51,394 52,391Q53,388 54,387.5Q55,387 55.5,385Q56,383 57,382.5Q58,382 58.5,380Q59,378 60,377.5Q61,377 61,376Q61,375 62,374.5Q63,374 63,373Q63,372 63.5,372Q64,372 64,371Q64,370 65.5,369Q67,368 67,367Q67,366 68.5,365Q70,364 70,363Q70,362 71.5,361Q73,360 73,359Q73,358 73.5,358Q74,358 74,357.5Q74,357 77,354.5Q80,352 80,351Q80,350 80.5,350Q81,350 81,349.5Q81,349 81.5,349Q82,349 82,348.5Q82,348 82.5,348Q83,348 83,347.5Q83,347 83.5,347Q84,347 84,346.5Q84,346 84.5,346Q85,346 85,345.5Q85,345 85.5,345Q86,345 86,344.5Q86,344 86.5,344Q87,344 89.5,341Q92,338 93,338Q94,338 94,337.5Q94,337 94.5,337Q95,337 97.5,334Q100,331 101,331Q102,331 103,329.5Q104,328 105,328Q106,328 107.5,326Q109,324 110,324Q111,324 111,323.5Q111,323 112.5,322.5Q114,322 114.5,321Q115,320 117,319.5Q119,319 119,318.5Q119,318 120.5,317.5Q122,317 122.5,316Q123,315 126,314Q129,313 129.5,312Q130,311 131,311Q132,311 132,310.5Q132,310 133,310Q134,310 134,309.5Q134,309 135,309Q136,309 136,308.5Q136,308 137,308Q138,308 138,307.5Q138,307 139,307Q140,307 140,306.5Q140,306 141,306Q142,306 142,305.5Q142,305 143,305Q144,305 144,304.5Q144,304 145.5,304Q147,304 147,303.5Q147,303 148,303Q149,303 149,302.5Q149,302 150,302Q151,302 151,301.5Q151,301 152.5,301Q154,301 154,300.5Q154,300 157,299.5Q160,299 160,298.5Q160,298 162.5,297.5Q165,297 165,296.5Q165,296 167,296Q169,296 169,295.5Q169,295 170.5,295Q172,295 172,294.5Q172,294 173.5,294Q175,294 175,293.5Q175,293 179.5,292.5Q184,292 184,291.5Q184,291 186,291Q188,291 188,290.5Q188,290 191,290Q194,290 194,289.5Q194,289 203.5,288.5Q213,288 213,287.5Q213,287 224.5,287Q236,287 236,287.5Q236,288 241.5,288Q247,288 247,288.5Q247,289 254,289.5Q261,290 261,290.5Q261,291 266,291.5Q271,292 271,292.5Q271,293 273,293Q275,293 275,293.5Q275,294 277,294Q279,294 279,294.5Q279,295 280.5,295Q282,295 282,295.5Q282,296 283.5,296Q285,296 285,296.5Q285,297 288.5,297.5Q292,298 292,298.5Q292,299 293,299Q294,299 294,299.5Q294,300 295.5,300Q297,300 297,300.5Q297,301 298.5,301Q300,301 300,301.5Q300,302 301,302Q302,302 302,302.5Q302,303 303.5,303Q305,303 305,303.5Q305,304 306,304Q307,304 307,304.5Q307,305 308,305Q309,305 309,305.5Q309,306 310.5,306Q312,306 312,306.5Q312,307 313,307Q314,307 314,307.5Q314,308 315,308Q316,308 316,308.5Q316,309 317,309Q318,309 318,309.5Q318,310 319,310Q320,310 320,310.5Q320,311 321,311Q322,311 322,311.5Q322,312 323,312Q324,312 324,312.5Q324,313 327,314Q330,315 330.5,316Q331,317 333,317.5Q335,318 335.5,319Q336,320 338,320.5Q340,321 340.5,322Q341,323 342,323Q343,323 343,323.5Q343,324 344,324Q345,324 345.5,325Q346,326 347,326Q348,326 348.5,327Q349,328 350,328Q351,328 352,329.5Q353,331 354,331Q355,331 356,332.5Q357,334 358,334Q359,334 359,334.5Q359,335 359.5,335Q360,335 360.5,336Q361,337 362,337Q363,337 364,338.5Q365,340 366,340Q367,340 369,342.5Q371,345 372,345Q373,345 373,345.5Q373,346 373.5,346Q374,346 374,346.5Q374,347 374.5,347Q375,347 375,347.5Q375,348 375.5,348Q376,348 378.5,351Q381,354 382,354Q383,354 383,354.5Q383,355 383.5,355Q384,355 384,355.5Q384,356 387,358.5Q390,361 390,362Q390,363 390.5,363Q391,363 391,363.5Q391,364 391.5,364Q392,364 392,364.5Q392,365 392.5,365Q393,365 393,365.5Q393,366 393.5,366Q394,366 394,366.5Q394,367 394.5,367Q395,367 395,367.5Q395,368 395.5,368Q396,368 396,368.5Q396,369 396.5,369Q397,369 397,369.5Q397,370 400,372.5Q403,375 403,376Q403,377 405,378.5Q407,380 407,381Q407,382 410,384.5Q413,387 413,388Q413,389 414.5,390Q416,391 416,392Q416,393 417,393.5Q418,394 418,395Q418,396 419,396.5Q420,397 420,398Q420,399 421,399.5Q422,400 422,401Q422,402 423.5,403Q425,404 425,405Q425,406 426,406.5Q427,407 427,408Q427,409 428,409.5Q429,410 429,411Q429,412 430,412.5Q431,413 431,414Q431,415 432,415.5Q433,416 433,417Q433,418 434,418.5Q435,419 435,420Q435,421 437,421Q439,421 439,420.5Q439,420 439.5,420Q440,420 442.5,417Q445,414 446,414Q447,414 447,413.5Q447,413 447.5,413Q448,413 448,412.5Q448,412 448.5,412Q449,412 451.5,409Q454,406 455,406Q456,406 457.5,404Q459,402 460,402Q461,402 462,400.5Q463,399 464,399Q465,399 466,397.5Q467,396 468,396Q469,396 469,395.5Q469,395 469.5,395Q470,395 470.5,394Q471,393 472,393Q473,393 474,391.5Q475,390 476,390Q477,390 477.5,389Q478,388 479,388Q480,388 481,386.5Q482,385 483,385Q484,385 484,384.5Q484,384 485.5,383.5Q487,383 487.5,382Q488,381 490,380.5Q492,380 492.5,379Q493,378 495,377.5Q497,377 497.5,376Q498,375 501,374Q504,373 504.5,372Q505,371 506,371Q507,371 507,370.5Q507,370 508,370Q509,370 509,369.5Q509,369 510.5,369Q512,369 512.5,368Q513,367 514,367Q515,367 515,366.5Q515,366 516,366Q517,366 517,365.5Q517,365 518,365Q519,365 519,364.5Q519,364 520,364Q521,364 521,363.5Q521,363 522.5,363Q524,363 524,362.5Q524,362 525,362Q526,362 526,361.5Q526,361 527,361Q528,361 528,360.5Q528,360 529.5,360Q531,360 531,359.5Q531,359 532,359Q533,359 533,358.5Q533,358 534.5,358Q536,358 536,357.5Q536,357 537,357Q538,357 538,356.5Q538,356 539.5,356Q541,356 541,355.5Q541,355 542.5,355Q544,355 544,354.5Q544,354 545.5,354Q547,354 547,353.5Q547,353 548.5,353Q550,353 550,352.5Q550,352 551.5,352Q553,352 553,351.5Q553,351 554.5,351Q556,351 556,350.5Q556,350 559.5,349.5Q563,349 563,348.5Q563,348 564,347.5Q565,347 565,341Q565,335 564.5,335Q564,335 564,330.5Q564,326 563.5,326Q563,326 562.5,319.5Q562,313 561.5,313Q561,313 560.5,307.5Q560,302 559.5,302Q559,302 559,300Q559,298 558.5,298Q558,298 557.5,294Q557,290 556.5,290Q556,290 556,288.5Q556,287 555.5,287Q555,287 555,285Q555,283 554.5,283Q554,283 553.5,279.5Q553,276 552.5,276Q552,276 552,274.5Q552,273 551.5,273Q551,273 550.5,270Q550,267 549.5,267Q549,267 549,266Q549,265 548.5,265Q548,265 547.5,262Q547,259 546.5,259Q546,259 546,258Q546,257 545.5,257Q545,257 545,255.5Q545,254 544.5,254Q544,254 544,253Q544,252 543.5,252Q543,252 543,250.5Q543,249 542.5,249Q542,249 542,248Q542,247 541.5,247Q541,247 541,246Q541,245 540.5,245Q540,245 540,244Q540,243 539.5,243Q539,243 539,242Q539,241 538.5,241Q538,241 538,240Q538,239 537.5,239Q537,239 537,238Q537,237 536.5,237Q536,237 536,236Q536,235 535.5,235Q535,235 535,234Q535,233 534.5,233Q534,233 533,230Q532,227 531,226.5Q530,226 530,225Q530,224 529.5,224Q529,224 528,221Q527,218 525.5,217Q524,216 524,215Q524,214 523,213.5Q522,213 522,212Q522,211 521,210.5Q520,210 520,209Q520,208 518.5,207Q517,206 517,205Q517,204 515.5,203Q514,202 514,201Q514,200 512,198.5Q510,197 510,196Q510,195 509.5,195Q509,195 509,194.5Q509,194 508.5,194Q508,194 508,193.5Q508,193 507.5,193Q507,193 507,192.5Q507,192 506.5,192Q506,192 506,191.5Q506,191 505.5,191Q505,191 505,190.5Q505,190 504.5,190Q504,190 504,189.5Q504,189 503.5,189Q503,189 503,188.5Q503,188 502.5,188Q502,188 502,187.5Q502,187 501.5,187Q501,187 498.5,184Q496,181 495,181Q494,181 494,180.5Q494,180 493.5,180Q493,180 492.5,179Q492,178 491,178Q490,178 490,177.5Q490,177 488,177Q486,177 486,177.5Q486,178 485.5,178Q485,178 485,178.5Q485,179 484.5,179Q484,179 484,179.5Q484,180 483.5,180Q483,180 480.5,183Q478,186 477,186Q476,186 475.5,187Q475,188 474,188Q473,188 473,188.5Q473,189 471.5,189.5Q470,190 469.5,191Q469,192 468,192Q467,192 467,192.5Q467,193 466,193Q465,193 465,193.5Q465,194 464,194Q463,194 463,194.5Q463,195 461.5,195Q460,195 460,195.5Q460,196 459,196Q458,196 458,196.5Q458,197 457,197Q456,197 456,197.5Q456,198 454.5,198Q453,198 453,198.5Q453,199 448.5,199.5Q444,200 444,200.5Q444,201 439.5,201Q435,201 435,201.5Q435,202 426.5,201.5Q418,201 418,200.5Q418,200 415.5,200Q413,200 413,199.5Q413,199 411.5,199Q410,199 410,198.5Q410,198 407,197.5Q404,197 404,196.5Q404,196 403,196Q402,196 402,195.5Q402,195 401,195Q400,195 400,194.5Q400,194 399,194Q398,194 398,193.5Q398,193 395,192Q392,191 391.5,190Q391,189 390,189Q389,189 389,188.5Q389,188 388.5,188Q388,188 388,187.5Q388,187 387.5,187Q387,187 387,186.5Q387,186 386.5,186Q386,186 386,185.5Q386,185 385.5,185Q385,185 385,184.5Q385,184 384.5,184Q384,184 384,183.5Q384,183 383.5,183Q383,183 383,182.5Q383,182 382.5,182Q382,182 382,181.5Q382,181 381.5,181Q381,181 381,180.5Q381,180 378,177.5Q375,175 375,174Q375,173 374,172.5Q373,172 373,171Q373,170 372,169.5Q371,169 371,168Q371,167 370.5,167Q370,167 370,166Q370,165 369.5,165Q369,165 369,164Q369,163 368.5,163Q368,163 368,161.5Q368,160 367.5,160Q367,160 366.5,157.5Q366,155 365.5,155Q365,155 365,153.5Q365,152 364.5,152Q364,152 364,149.5Q364,147 363.5,147Q363,147 362.5,137Q362,127 362.5,127Q363,127 363,124Q363,121 363.5,121Q364,121 364.5,117Q365,113 365.5,113Q366,113 366,111.5Q366,110 366.5,110Q367,110 367,109Q367,108 367.5,108Q368,108 368,106.5Q368,105 368.5,105Q369,105 369,104Q369,103 369.5,103Q370,103 371,100Q372,97 373.5,96Q375,95 375,94Q375,93 376.5,92Q378,91 378,90Q378,89 378.5,89Q379,89 379,88.5Q379,88 379.5,88Q380,88 380,87.5Q380,87 380.5,87Q381,87 381,86.5Q381,86 381.5,86Q382,86 382,85.5Q382,85 382.5,85Q383,85 383,84.5Q383,84 383.5,84Q384,84 386.5,81Q389,78 390,78Q391,78 392,76.5Q393,75 395,74.5Q397,74 397.5,73Q398,72 399,72Q400,72 400,71.5Q400,71 401,71Q402,71 402,70.5Q402,70 403,70Q404,70 404,69.5Q404,69 405,69Q406,69 406,68.5Q406,68 407,68Q408,68 408,67.5Q408,67 409.5,67Q411,67 411,66.5Q411,66 412.5,66Q414,66 414,65.5Q414,65 416,65Q418,65 418,64.5Q418,64 420,64Q422,64 422,63.5Q422,63 425.5,63Q429,63 429,62.5Z"/><path id="color-08" fill="#F8D56E" stroke="#F8D56E" stroke-width="0.5" stroke-linejoin="round" fill-rule="evenodd" d="M219,288Q221,287 239.5,289Q258,291 271.5,294Q285,297 300,303Q315,309 325.5,314.5Q336,320 341,324Q346,328 349,329Q352,330 354.5,333Q357,336 364,340.5Q371,345 378.5,353Q386,361 389.5,363.5Q393,366 393,367Q393,368 403.5,379Q414,390 416,394.5Q418,399 423.5,405Q429,411 430,414Q431,417 434.5,420Q438,423 439.5,423Q441,423 444,418.5Q447,414 449.5,413.5Q452,413 452.5,411.5Q453,410 455.5,407.5Q458,405 460.5,404Q463,403 465.5,400Q468,397 471.5,396Q475,395 482.5,389Q490,383 510,372.5Q530,362 536.5,360Q543,358 546,358Q549,358 549.5,357Q550,356 554.5,354.5Q559,353 562,353Q565,353 567.5,355Q570,357 575.5,358.5Q581,360 590,359Q599,358 605.5,355Q612,352 616.5,347Q621,342 634.5,341.5Q648,341 659,342Q670,343 688.5,346.5Q707,350 715,353.5Q723,357 733,359.5Q743,362 745.5,364Q748,366 759.5,370.5Q771,375 774,377.5Q777,380 777.5,381.5Q778,383 781,383.5Q784,384 785.5,385.5Q787,387 791.5,388.5Q796,390 798,392.5Q800,395 802.5,396Q805,397 808,401Q811,405 813,405Q815,405 816.5,406.5Q818,408 818,410Q818,412 816,415.5Q814,419 814,422Q814,425 815.5,431.5Q817,438 819,440Q821,442 821.5,444Q822,446 828.5,450.5Q835,455 838,456Q841,457 852.5,457Q864,457 868,461.5Q872,466 872,467.5Q872,469 875.5,474Q879,479 879.5,481.5Q880,484 884,489Q888,494 888.5,499.5Q889,505 890,505.5Q891,506 891,507.5Q891,509 893,511Q895,513 896.5,516.5Q898,520 902.5,519Q907,518 912.5,513Q918,508 941.5,495.5Q965,483 967.5,483Q970,483 972,481.5Q974,480 980.5,477.5Q987,475 989.5,475Q992,475 993,474Q994,473 999.5,472.5Q1005,472 1005.5,471Q1006,470 1023,467.5Q1040,465 1059,465.5Q1078,466 1089.5,468Q1101,470 1106.5,472.5Q1112,475 1116.5,475.5Q1121,476 1139,485.5Q1157,495 1171,507Q1185,519 1187.5,523.5Q1190,528 1196,535Q1202,542 1206.5,550.5Q1211,559 1216,572Q1221,585 1222.5,592.5Q1224,600 1225,612Q1226,624 1227,625Q1228,626 1228,641Q1228,656 1227,657Q1226,658 1225,670.5Q1224,683 1220.5,697.5Q1217,712 1213,723Q1209,734 1203,746.5Q1197,759 1195,761Q1193,763 1191,768Q1189,773 1185.5,777Q1182,781 1180.5,785Q1179,789 1177,790.5Q1175,792 1174,795Q1173,798 1169,801.5Q1165,805 1163,808.5Q1161,812 1158.5,814Q1156,816 1155.5,818Q1155,820 1153,821Q1151,822 1138,835.5Q1125,849 1123,849.5Q1121,850 1118.5,853Q1116,856 1102,865.5Q1088,875 1067.5,885.5Q1047,896 1029.5,901.5Q1012,907 1001.5,909Q991,911 981,911.5Q971,912 970,913Q969,914 969,915.5Q969,917 975,921.5Q981,926 982,928Q983,930 986,931.5Q989,933 999,945Q1009,957 1017,972.5Q1025,988 1028,1002Q1031,1016 1031,1028Q1031,1040 1028,1054.5Q1025,1069 1024,1069.5Q1023,1070 1022,1074.5Q1021,1079 1017.5,1084Q1014,1089 1012.5,1093Q1011,1097 1000.5,1109Q990,1121 989,1121Q988,1121 985,1124.5Q982,1128 978,1130Q974,1132 972.5,1134Q971,1136 958,1142.5Q945,1149 931.5,1153Q918,1157 906.5,1158Q895,1159 873,1157Q851,1155 836,1150Q821,1145 803.5,1136Q786,1127 784.5,1125Q783,1123 780,1122Q777,1121 775.5,1119Q774,1117 763.5,1109.5Q753,1102 750,1102.5Q747,1103 738,1112Q729,1121 714.5,1128.5Q700,1136 694,1137Q688,1138 674.5,1137.5Q661,1137 650,1132Q639,1127 634,1123Q629,1119 626.5,1119Q624,1119 618.5,1121.5Q613,1124 612.5,1125Q612,1126 608.5,1126.5Q605,1127 600,1130Q595,1133 587.5,1135.5Q580,1138 559,1139Q538,1140 528,1138Q518,1136 510,1132Q502,1128 499,1127.5Q496,1127 488,1121Q480,1115 469,1104Q458,1093 446.5,1074Q435,1055 432,1055.5Q429,1056 422,1062Q415,1068 407,1072Q399,1076 398.5,1077Q398,1078 381,1086Q364,1094 346,1099.5Q328,1105 308.5,1107.5Q289,1110 271,1109.5Q253,1109 239.5,1106.5Q226,1104 216,1100.5Q206,1097 191,1088.5Q176,1080 164.5,1069Q153,1058 143.5,1043.5Q134,1029 130.5,1020Q127,1011 126,1004Q125,997 124,996Q123,995 122,986.5Q121,978 121.5,962.5Q122,947 124.5,935Q127,923 128,922.5Q129,922 129.5,918.5Q130,915 134.5,904.5Q139,894 140.5,893Q142,892 147,883Q152,874 155,871.5Q158,869 162,862Q166,855 171.5,851.5Q177,848 182,842.5Q187,837 189,836.5Q191,836 197,830.5Q203,825 226,813.5Q249,802 249.5,800Q250,798 229.5,789.5Q209,781 186,766Q163,751 151.5,740.5Q140,730 139,730Q138,730 128.5,720.5Q119,711 119,710Q119,709 115.5,706Q112,703 112,702Q112,701 108.5,698Q105,695 103.5,692Q102,689 96.5,683Q91,677 90,674Q89,671 87,669.5Q85,668 80,659Q75,650 73,648.5Q71,647 70,643.5Q69,640 67.5,639Q66,638 65,634.5Q64,631 55.5,615Q47,599 43,587.5Q39,576 34,552Q29,528 28.5,501.5Q28,475 31,456.5Q34,438 35.5,436Q37,434 37,431.5Q37,429 39,425.5Q41,422 42,416.5Q43,411 45.5,407.5Q48,404 48,402Q48,400 59.5,381.5Q71,363 81,352Q91,341 92,341Q93,341 99.5,334.5Q106,328 112,325Q118,322 119.5,320Q121,318 137,310Q153,302 167,297.5Q181,293 193.5,291Q206,289 211.5,289Q217,289 219,288ZM373,501.5Q385,482 385.5,477.5Q386,473 382,467.5Q378,462 368,451.5Q358,441 357,441Q356,441 350,435.5Q344,430 328,421Q312,412 303,409Q294,406 285.5,405Q277,404 275,403Q273,402 257.5,402Q242,402 229,405Q216,408 208,411Q200,414 187.5,421.5Q175,429 162.5,441Q150,453 142,465.5Q134,478 131,485.5Q128,493 125,504.5Q122,516 122,522.5Q122,529 121,530Q120,531 120,541Q120,551 120.5,555Q121,559 122,560Q123,561 122.5,564.5Q122,568 127.5,587.5Q133,607 139,620Q145,633 154.5,647.5Q164,662 176,675.5Q188,689 189,689Q190,689 198,696.5Q206,704 209.5,705.5Q213,707 214.5,709Q216,711 224,716Q232,721 252,729.5Q272,738 274.5,738Q277,738 286.5,741Q296,744 306.5,744.5Q317,745 318.5,746Q320,747 342.5,746.5Q365,746 371,745Q377,744 378,743Q379,742 379,740Q379,738 376,734.5Q373,731 371.5,730.5Q370,730 361.5,718Q353,706 351.5,701.5Q350,697 345.5,689.5Q341,682 337.5,669.5Q334,657 332.5,639.5Q331,622 334,601.5Q337,581 340.5,570Q344,559 352.5,540Q361,521 373,501.5ZM367,650Q367,656 369.5,661.5Q372,667 374.5,669.5Q377,672 379.5,681Q382,690 391,704Q400,718 409.5,728Q419,738 422,739.5Q425,741 435,749.5Q445,758 449,760Q453,762 451,762.5Q449,763 445,761Q441,759 439,756.5Q437,754 435,753.5Q433,753 430,760.5Q427,768 429,773Q431,778 435.5,780.5Q440,783 442.5,783Q445,783 448,779.5Q451,776 454.5,774.5Q458,773 459.5,770Q461,767 465.5,767Q470,767 476.5,765Q483,763 492.5,763.5Q502,764 510.5,766.5Q519,769 519.5,770Q520,771 527,774.5Q534,778 539.5,783.5Q545,789 549,796Q553,803 555,805Q557,807 560.5,808Q564,809 568.5,809Q573,809 578,804.5Q583,800 589.5,796.5Q596,793 598,793Q600,793 604,791Q608,789 619,788Q630,787 638.5,788Q647,789 655.5,791.5Q664,794 675,800Q686,806 693,812.5Q700,819 705.5,819Q711,819 718,816Q725,813 729,812.5Q733,812 733.5,811Q734,810 739.5,808Q745,806 755,799Q765,792 771,786Q777,780 783,772Q789,764 796,749Q803,734 807,713Q811,692 811,675.5Q811,659 810,649.5Q809,640 807,630.5Q805,621 801,611Q797,601 797,599Q797,597 790,583Q783,569 768,549Q753,529 746,522Q739,515 738,515Q737,515 727,506.5Q717,498 704.5,491Q692,484 690,482Q688,480 682.5,478Q677,476 676.5,475Q676,474 671.5,473Q667,472 659,468Q651,464 637,460Q623,456 602.5,453Q582,450 558.5,450.5Q535,451 518,454.5Q501,458 500,459Q499,460 493,461.5Q487,463 486.5,464Q486,465 473.5,471Q461,477 449.5,486.5Q438,496 437,496Q436,496 423.5,510Q411,524 401,539.5Q391,555 390.5,558Q390,561 384.5,572.5Q379,584 379,586.5Q379,589 377,594Q375,599 373.5,608Q372,617 372,626Q372,635 369.5,639.5Q367,644 367,650ZM1148,676Q1148,666 1148.5,663.5Q1149,661 1148,660Q1147,659 1147,654.5Q1147,650 1145,642Q1143,634 1137.5,623Q1132,612 1125,603.5Q1118,595 1108.5,588Q1099,581 1096.5,580.5Q1094,580 1090.5,577.5Q1087,575 1070.5,570.5Q1054,566 1038,565.5Q1022,565 1021,566Q1020,567 1016.5,566.5Q1013,566 998,569Q983,572 963.5,580Q944,588 938.5,592.5Q933,597 926.5,600.5Q920,604 916,608Q912,612 911.5,623.5Q911,635 908.5,652.5Q906,670 900.5,690Q895,710 884.5,733Q874,756 868.5,764.5Q863,773 853.5,783Q844,793 843.5,794.5Q843,796 828,807Q813,818 805,821.5Q797,825 796,826Q795,827 795,829Q795,831 805,836.5Q815,842 832,848Q849,854 873,859Q897,864 901.5,863.5Q906,863 907,864Q908,865 929,865Q950,865 951.5,864Q953,863 961,863Q969,863 984.5,859.5Q1000,856 1011,852Q1022,848 1035.5,841Q1049,834 1064,823Q1079,812 1092.5,798Q1106,784 1110,777Q1114,770 1117,767Q1120,764 1127,751.5Q1134,739 1139.5,723Q1145,707 1146.5,696.5Q1148,686 1148,676ZM446,794Q449,792 449.5,790.5Q450,789 449,788Q448,787 445.5,787.5Q443,788 433.5,800Q424,812 421,819Q418,826 417,826.5Q416,827 414,834.5Q412,842 410.5,844Q409,846 408,851.5Q407,857 402,856Q397,855 392,852.5Q387,850 376.5,849Q366,848 364.5,847Q363,846 351.5,846Q340,846 339,847Q338,848 334,847.5Q330,847 307,853.5Q284,860 271,867Q258,874 246.5,882.5Q235,891 227,899.5Q219,908 213.5,916Q208,924 203.5,935.5Q199,947 197.5,954Q196,961 196,971Q196,981 197,982.5Q198,984 199,990.5Q200,997 202.5,1004Q205,1011 210,1018Q215,1025 220.5,1031Q226,1037 234,1042.5Q242,1048 250,1051Q258,1054 269,1056.5Q280,1059 297,1059Q314,1059 315.5,1058Q317,1057 321.5,1057Q326,1057 335.5,1055Q345,1053 354,1050Q363,1047 372,1042.5Q381,1038 390,1032Q399,1026 406.5,1019Q414,1012 416.5,1008.5Q419,1005 418,995Q417,985 417,969Q417,953 419,940Q421,927 423,926Q425,925 426,926.5Q427,928 431,928.5Q435,929 440,925.5Q445,922 445,948.5Q445,975 446.5,985.5Q448,996 451.5,1008.5Q455,1021 461.5,1035Q468,1049 472,1054Q476,1059 476.5,1061Q477,1063 481.5,1069Q486,1075 496.5,1084Q507,1093 514.5,1097Q522,1101 529.5,1103.5Q537,1106 548.5,1108Q560,1110 573.5,1109.5Q587,1109 598,1107.5Q609,1106 621.5,1102Q634,1098 641.5,1095Q649,1092 659,1085.5Q669,1079 674.5,1074Q680,1069 687,1059.5Q694,1050 698,1036Q702,1022 702.5,1009Q703,996 702,987Q701,978 698,967.5Q695,957 690.5,948Q686,939 685,938Q684,937 667,936.5Q650,936 640,933Q630,930 620.5,925.5Q611,921 598,911Q585,901 577,890Q569,879 566.5,872Q564,865 560.5,859.5Q557,854 555.5,854.5Q554,855 553,859Q552,863 549,868.5Q546,874 541,879Q536,884 531.5,886.5Q527,889 521.5,890.5Q516,892 509.5,892Q503,892 494.5,890Q486,888 484.5,886.5Q483,885 479,885Q475,885 475,882.5Q475,880 468.5,875.5Q462,871 457,865Q452,859 447.5,849Q443,839 441.5,832Q440,825 441,812Q442,799 442.5,797.5Q443,796 446,794ZM566,827Q570,823 570.5,822Q571,821 569.5,821Q568,821 565.5,823.5Q563,826 560.5,827Q558,828 557,838.5Q556,849 557.5,850Q559,851 560,850.5Q561,850 560,845.5Q559,841 560.5,836Q562,831 566,827ZM717,838Q716,840 718.5,845Q721,850 723.5,859Q726,868 726,881Q726,894 725,899Q724,904 721.5,909.5Q719,915 712.5,921Q706,927 701.5,929.5Q697,932 697.5,934.5Q698,937 709,937Q720,937 726,936Q732,935 737,933Q742,931 748.5,925Q755,919 758,912Q761,905 761,893Q761,881 758.5,874Q756,867 752.5,861.5Q749,856 739.5,847Q730,838 724,837Q718,836 717,838ZM761,917Q761,920 766.5,928.5Q772,937 776,946Q780,955 783,964.5Q786,974 787.5,983Q789,992 789,1004.5Q789,1017 788,1022.5Q787,1028 785,1037Q783,1046 779.5,1054Q776,1062 778.5,1066.5Q781,1071 792.5,1078.5Q804,1086 817.5,1091Q831,1096 840,1097.5Q849,1099 863.5,1099.5Q878,1100 885,1099Q892,1098 902,1094.5Q912,1091 918,1087.5Q924,1084 931,1078Q938,1072 943,1065Q948,1058 951,1050.5Q954,1043 955.5,1037Q957,1031 957,1020Q957,1009 955,1000.5Q953,992 949.5,983Q946,974 938.5,963Q931,952 922.5,943.5Q914,935 901.5,926.5Q889,918 881,914Q873,910 863,906.5Q853,903 841,900.5Q829,898 823,898.5Q817,899 816,898Q815,897 809.5,897Q804,897 790.5,900Q777,903 771.5,906Q766,909 763.5,911.5Q761,914 761,917Z"/><path id="color-12" fill="#FCE7C9" stroke="#FCE7C9" stroke-width="0.5" stroke-linejoin="round" fill-rule="evenodd" d="M231.5,408.5Q248,405 259,405Q270,405 280.5,407Q291,409 307.5,415.5Q324,422 338.5,432Q353,442 364.5,454Q376,466 379.5,471.5Q383,477 382,481Q381,485 376.5,490.5Q372,496 370.5,500Q369,504 365.5,508.5Q362,513 353,532Q344,551 339.5,565Q335,579 332.5,593.5Q330,608 330,626Q330,644 332.5,657.5Q335,671 338,680Q341,689 344.5,696Q348,703 357.5,717Q367,731 369.5,732.5Q372,734 372.5,736.5Q373,739 372,740Q371,741 361.5,742.5Q352,744 337.5,744Q323,744 311,742.5Q299,741 278,735Q257,729 249.5,725.5Q242,722 240,720Q238,718 235.5,717.5Q233,717 219,707.5Q205,698 189.5,683Q174,668 163.5,653.5Q153,639 144.5,622Q136,605 130.5,583.5Q125,562 124.5,544.5Q124,527 126,516.5Q128,506 134.5,489.5Q141,473 146,465.5Q151,458 156,453.5Q161,449 161,448Q161,447 172,437.5Q183,428 199,420Q215,412 231.5,408.5ZM533,454.5Q549,452 564,452Q579,452 598.5,455Q618,458 632.5,462Q647,466 666.5,474.5Q686,483 688,485Q690,487 693.5,488Q697,489 707,495.5Q717,502 718.5,504Q720,506 726,510Q732,514 735.5,518Q739,522 742,523.5Q745,525 747.5,529Q750,533 758,541.5Q766,550 773.5,561Q781,572 790,591.5Q799,611 802.5,625Q806,639 807.5,650Q809,661 808.5,679Q808,697 804.5,713.5Q801,730 799.5,732Q798,734 797,738.5Q796,743 792,749.5Q788,756 788,757.5Q788,759 781.5,768Q775,777 768,784Q761,791 757,793Q753,795 749,798.5Q745,802 735,806.5Q725,811 717,813.5Q709,816 705.5,816Q702,816 699.5,813Q697,810 692.5,807.5Q688,805 687,803.5Q686,802 674.5,796Q663,790 654,788Q645,786 627.5,786Q610,786 604,787.5Q598,789 590.5,792.5Q583,796 576.5,801.5Q570,807 565.5,806Q561,805 558.5,803Q556,801 555.5,799Q555,797 546.5,787Q538,777 529,771.5Q520,766 509,763.5Q498,761 490.5,761Q483,761 478,761.5Q473,762 472,763Q471,764 466,764Q461,764 459,762Q457,760 454,759Q451,758 445,754Q439,750 427.5,740Q416,730 416,729Q416,728 407,719Q398,710 394.5,703Q391,696 389,694Q387,692 385.5,689Q384,686 385,684Q386,682 394.5,685Q403,688 409,688Q415,688 421.5,685Q428,682 431,678Q434,674 445,677Q456,680 466,678.5Q476,677 484.5,672.5Q493,668 501.5,659Q510,650 514.5,641Q519,632 521,624Q523,616 522.5,600.5Q522,585 517,574Q512,563 506,557.5Q500,552 494,549Q488,546 481.5,545Q475,544 469.5,544.5Q464,545 457,547Q450,549 448,551Q446,553 441.5,555Q437,557 429,565Q421,573 420.5,575Q420,577 417.5,580Q415,583 412,590Q409,597 407,610Q405,623 403.5,624.5Q402,626 392.5,626Q383,626 382,627Q381,628 378.5,628Q376,628 375.5,621Q375,614 378,601.5Q381,589 384,581Q387,573 389.5,569Q392,565 392.5,562Q393,559 396,555Q399,551 399,549.5Q399,548 411,531.5Q423,515 434,504Q445,493 457,484.5Q469,476 471.5,475.5Q474,475 476,473Q478,471 481,470.5Q484,470 485.5,468.5Q487,467 490,466.5Q493,466 493.5,465Q494,464 505.5,460.5Q517,457 533,454.5ZM1011,570.5Q1027,568 1044.5,569.5Q1062,571 1071,573.5Q1080,576 1088.5,580Q1097,584 1110,595Q1123,606 1127.5,612.5Q1132,619 1132,620.5Q1132,622 1135.5,628Q1139,634 1141.5,642.5Q1144,651 1145,659Q1146,667 1146,674Q1146,681 1144,692.5Q1142,704 1137,719Q1132,734 1131,734.5Q1130,735 1127,742.5Q1124,750 1122,752Q1120,754 1120,755.5Q1120,757 1112.5,768Q1105,779 1089.5,795Q1074,811 1061,820.5Q1048,830 1037,836Q1026,842 1022,843Q1018,844 1016.5,845.5Q1015,847 995.5,852.5Q976,858 971.5,858Q967,858 962,859.5Q957,861 952.5,860.5Q948,860 946.5,861Q945,862 931.5,862Q918,862 917,861Q916,860 910,860.5Q904,861 902.5,860Q901,859 894,859Q887,859 865.5,854Q844,849 842,847.5Q840,846 834,844.5Q828,843 815.5,837.5Q803,832 803,828.5Q803,825 808,823.5Q813,822 820.5,817Q828,812 842,799.5Q856,787 868.5,769Q881,751 888.5,733.5Q896,716 899.5,704.5Q903,693 907,673.5Q911,654 912,636.5Q913,619 915,615.5Q917,612 931,602Q945,592 954,588.5Q963,585 963.5,584Q964,583 979.5,578Q995,573 1011,570.5ZM523,685.5Q523,690 524,694Q525,698 529,703Q533,708 541,711Q549,714 555,713Q561,712 566.5,716.5Q572,721 575,722Q578,723 582.5,723.5Q587,724 592.5,722.5Q598,721 600.5,719.5Q603,718 607.5,712.5Q612,707 612,703Q612,699 610,696.5Q608,694 603,694Q598,694 593.5,698.5Q589,703 584.5,703Q580,703 578,701.5Q576,700 573.5,695.5Q571,691 567,690.5Q563,690 559.5,690.5Q556,691 555,692Q554,693 550.5,693Q547,693 545,691Q543,689 542,683Q541,677 538.5,675.5Q536,674 532.5,674Q529,674 527,675.5Q525,677 524,679Q523,681 523,685.5ZM767,703Q768,696 768.5,687.5Q769,679 768,672Q767,665 761.5,653.5Q756,642 750.5,637Q745,632 740,629Q735,626 728,624Q721,622 715.5,622Q710,622 698.5,625Q687,628 679.5,633Q672,638 665,645.5Q658,653 652,665.5Q646,678 644.5,686Q643,694 643,700.5Q643,707 646,718.5Q649,730 650,730.5Q651,731 653,735.5Q655,740 663,747.5Q671,755 676,757Q681,759 681.5,761.5Q682,764 681,767.5Q680,771 683.5,777Q687,783 697,788.5Q707,794 720.5,794.5Q734,795 735,794Q736,793 742.5,791.5Q749,790 755,784.5Q761,779 761.5,771Q762,763 759.5,759Q757,755 751.5,751.5Q746,748 746,746Q746,744 748.5,742Q751,740 755.5,732.5Q760,725 763,717.5Q766,710 767,703ZM345.5,850Q347,849 363.5,850.5Q380,852 390,855.5Q400,859 402.5,861Q405,863 405,880.5Q405,898 408,906Q411,914 415,918.5Q419,923 417,938Q415,953 415.5,978.5Q416,1004 407.5,1012.5Q399,1021 387,1029Q375,1037 371,1038Q367,1039 359.5,1043Q352,1047 343,1049.5Q334,1052 326.5,1053.5Q319,1055 315.5,1054.5Q312,1054 310.5,1055Q309,1056 296.5,1056Q284,1056 271.5,1053.5Q259,1051 249,1046.5Q239,1042 228.5,1032.5Q218,1023 215,1018.5Q212,1014 207.5,1005Q203,996 201.5,989.5Q200,983 200.5,980Q201,977 200,975.5Q199,974 199,969.5Q199,965 200,958.5Q201,952 207,938Q213,924 217,918Q221,912 230,902.5Q239,893 254,882.5Q269,872 270.5,872Q272,872 278.5,868Q285,864 292.5,861Q300,858 314.5,854.5Q329,851 336.5,851Q344,851 345.5,850ZM553,868Q555,863 557,863Q559,863 560,864Q561,865 563.5,873Q566,881 572,889.5Q578,898 585.5,905Q593,912 604,919.5Q615,927 618,927.5Q621,928 626.5,931Q632,934 640,936Q648,938 664,938.5Q680,939 682,941Q684,943 688.5,951.5Q693,960 696.5,975Q700,990 699.5,1007Q699,1024 695.5,1035Q692,1046 687,1054Q682,1062 673.5,1070Q665,1078 654,1084.5Q643,1091 629,1096Q615,1101 600,1104Q585,1107 575.5,1107.5Q566,1108 564.5,1107Q563,1106 559.5,1106.5Q556,1107 546.5,1105Q537,1103 526,1098.5Q515,1094 508,1089Q501,1084 493,1076Q485,1068 475,1052Q465,1036 458.5,1017.5Q452,999 449.5,984.5Q447,970 447,950Q447,930 448,925Q449,920 455.5,913Q462,906 464,905Q466,904 472,896Q478,888 488.5,891Q499,894 512,893.5Q525,893 532,889.5Q539,886 545,879.5Q551,873 553,868ZM801.5,902Q803,901 813,901Q823,901 838.5,904Q854,907 860,909Q866,911 867.5,912.5Q869,914 879.5,918.5Q890,923 899.5,929.5Q909,936 919.5,946.5Q930,957 935.5,965Q941,973 941,974.5Q941,976 945.5,984.5Q950,993 951.5,999.5Q953,1006 953,1020Q953,1034 950,1043Q947,1052 942.5,1059Q938,1066 932.5,1071.5Q927,1077 920.5,1081.5Q914,1086 899,1091Q884,1096 865.5,1096Q847,1096 831,1091.5Q815,1087 812.5,1085Q810,1083 804.5,1081Q799,1079 789.5,1071.5Q780,1064 780,1061.5Q780,1059 782.5,1054.5Q785,1050 788,1035.5Q791,1021 791,1004.5Q791,988 787.5,972Q784,956 779.5,946Q775,936 769.5,928Q764,920 764,918Q764,916 769.5,912Q775,908 781,906Q787,904 793.5,903.5Q800,903 801.5,902Z"/><path id="color-23" fill="#E3B344" stroke="#E3B344" stroke-width="0.5" stroke-linejoin="round" fill-rule="evenodd" d="M418.5,64.5Q429,62 435,62Q441,62 449.5,63.5Q458,65 468.5,70.5Q479,76 485.5,82.5Q492,89 495.5,95Q499,101 501.5,109Q504,117 504.5,124Q505,131 511.5,134.5Q518,138 519,139.5Q520,141 526,144.5Q532,148 534.5,151Q537,154 538,154Q539,154 548,163.5Q557,173 565,184Q573,195 582,211.5Q591,228 600,253Q609,278 612,291.5Q615,305 617,320.5Q619,336 619,338Q619,340 617.5,340.5Q616,341 613.5,344Q611,347 606,349.5Q601,352 595,353.5Q589,355 582,354.5Q575,354 570,350.5Q565,347 565,341Q565,335 562.5,318.5Q560,302 556.5,289Q553,276 548,262.5Q543,249 535,233.5Q527,218 525.5,217Q524,216 522,212Q520,208 515,202.5Q510,197 510,196Q510,195 501,186.5Q492,178 489,177.5Q486,177 482,181.5Q478,186 467,192Q456,198 450,199.5Q444,201 435,201.5Q426,202 419.5,201Q413,200 402.5,195.5Q392,191 383.5,183Q375,175 373,172Q371,169 367.5,160.5Q364,152 363,139.5Q362,127 363.5,120Q365,113 368.5,105Q372,97 382.5,86Q393,75 400.5,71Q408,67 418.5,64.5ZM820.5,136.5Q830,134 839,134Q848,134 858,136.5Q868,139 876.5,144Q885,149 893,158Q901,167 904.5,174.5Q908,182 909.5,190Q911,198 910,209Q909,220 906,228Q903,236 906,241Q909,246 911.5,253Q914,260 917,278Q920,296 920,306.5Q920,317 917.5,335Q915,353 907.5,374Q900,395 891.5,410Q883,425 875.5,433.5Q868,442 868,443Q868,444 865.5,446.5Q863,449 860.5,449Q858,449 854,451Q850,453 845,452.5Q840,452 834.5,449Q829,446 826,443Q823,440 821,436Q819,432 819,425.5Q819,419 822,412.5Q825,406 829,401.5Q833,397 838.5,386.5Q844,376 845,375.5Q846,375 853,358Q860,341 863.5,323Q867,305 866,288.5Q865,272 863.5,270.5Q862,269 853.5,271Q845,273 835,272.5Q825,272 819,270.5Q813,269 806,265.5Q799,262 791.5,255.5Q784,249 780,243.5Q776,238 773,230.5Q770,223 769,217.5Q768,212 768.5,200.5Q769,189 771,182.5Q773,176 776,170.5Q779,165 786.5,157Q794,149 797,147Q800,145 805.5,142Q811,139 820.5,136.5ZM494.5,1149.5Q494,1146 495,1146Q496,1146 497,1151Q498,1156 504,1166.5Q510,1177 509,1177Q508,1177 505,1173Q502,1169 499.5,1161.5Q497,1154 496,1153.5Q495,1153 494.5,1149.5ZM706.5,1177.5Q710,1174 711,1174Q712,1174 712,1175Q712,1176 708.5,1179.5Q705,1183 704,1183Q703,1183 703,1182Q703,1181 706.5,1177.5ZM517.5,1185.5Q517,1184 518.5,1184Q520,1184 524,1187Q528,1190 536,1191.5Q544,1193 544.5,1194Q545,1195 543,1195.5Q541,1196 535,1194.5Q529,1193 523.5,1190Q518,1187 517.5,1185.5ZM692.5,1188Q697,1185 698.5,1185Q700,1185 699.5,1186.5Q699,1188 695,1190Q691,1192 684.5,1193.5Q678,1195 678.5,1193.5Q679,1192 683.5,1191.5Q688,1191 692.5,1188ZM570,1189Q576,1186 577.5,1186Q579,1186 579,1187Q579,1188 575.5,1190Q572,1192 565.5,1194Q559,1196 557,1195.5Q555,1195 555.5,1194Q556,1193 560,1192.5Q564,1192 570,1189ZM642,1190Q640,1188 646,1190.5Q652,1193 655.5,1193Q659,1193 659.5,1194Q660,1195 658,1195.5Q656,1196 650,1194Q644,1192 642,1190Z"/><path id="color-00" fill="#60374A" stroke="#60374A" stroke-width="0.5" stroke-linejoin="round" fill-rule="evenodd" d="M460.5,549.5Q466,548 478,549Q490,550 494.5,552.5Q499,555 504.5,560.5Q510,566 514.5,576Q519,586 519,589.5Q519,593 520,594Q521,595 521,602Q521,609 520,610Q519,611 519,615Q519,619 516.5,627Q514,635 510,642.5Q506,650 500,656.5Q494,663 484.5,668.5Q475,674 463.5,675Q452,676 446,674.5Q440,673 436.5,670.5Q433,668 433,662Q433,656 431,651.5Q429,647 423.5,641Q418,635 414.5,633.5Q411,632 410,630.5Q409,629 409,620.5Q409,612 410.5,605Q412,598 417.5,587Q423,576 433,566.5Q443,557 449,554Q455,551 460.5,549.5ZM471,588.5Q471,593 472,596Q473,599 475.5,602Q478,605 482.5,607Q487,609 490.5,609Q494,609 497,608Q500,607 503,604.5Q506,602 508,598Q510,594 510,589.5Q510,585 508.5,581.5Q507,578 503,574.5Q499,571 492,570.5Q485,570 479.5,574Q474,578 472.5,581Q471,584 471,588.5ZM698,628Q705,626 714,626Q723,626 728.5,627.5Q734,629 737,630.5Q740,632 747,638.5Q754,645 758.5,654Q763,663 765,676.5Q767,690 766,691Q765,692 763,703.5Q761,715 756,724.5Q751,734 746,739Q741,744 723.5,744Q706,744 700,746.5Q694,749 691,752Q688,755 685.5,755.5Q683,756 676.5,753Q670,750 663.5,743.5Q657,737 654.5,732.5Q652,728 649.5,719.5Q647,711 647.5,697.5Q648,684 650,677.5Q652,671 658,661Q664,651 672,643.5Q680,636 685.5,633Q691,630 698,628ZM749.5,673Q749,669 749,666Q749,663 746,659.5Q743,656 738,653.5Q733,651 730,651Q727,651 722,653Q717,655 714.5,658Q712,661 710.5,664.5Q709,668 709,672Q709,676 710,679Q711,682 713.5,685Q716,688 721.5,690.5Q727,693 729.5,693Q732,693 737,691Q742,689 744.5,686.5Q747,684 748.5,680.5Q750,677 749.5,673ZM528.5,680Q531,677 534.5,678.5Q538,680 539.5,686Q541,692 544,694.5Q547,697 551.5,697Q556,697 558.5,695.5Q561,694 564,694Q567,694 572,699.5Q577,705 579,706Q581,707 585,707Q589,707 592.5,705Q596,703 597.5,700.5Q599,698 602,697.5Q605,697 606.5,698Q608,699 608.5,702Q609,705 604.5,710.5Q600,716 595,718Q590,720 583,719.5Q576,719 573,717.5Q570,716 566.5,712.5Q563,709 553.5,709.5Q544,710 540,708Q536,706 532,701Q528,696 527,689.5Q526,683 528.5,680Z"/><path id="color-02" fill="#EBC153" stroke="#EBC153" stroke-width="0.5" stroke-linejoin="round" fill-rule="evenodd" d="M615,343Q619,339 627,339Q635,339 635,340.5Q635,342 627,342Q619,342 616,345.5Q613,349 606,352.5Q599,356 592.5,357Q586,358 580.5,357.5Q575,357 570,353.5Q565,350 567,349.5Q569,349 570,350.5Q571,352 575.5,353.5Q580,355 587,354.5Q594,354 602.5,350.5Q611,347 615,343ZM820.5,409Q820,407 821.5,407.5Q823,408 823,410.5Q823,413 821,416Q819,419 819,425.5Q819,432 821,436Q823,440 826,443Q829,446 834.5,449Q840,452 845,452.5Q850,453 854,451Q858,449 859.5,449.5Q861,450 860.5,451Q860,452 857,453.5Q854,455 847.5,455Q841,455 835.5,452.5Q830,450 826,446Q822,442 819,435.5Q816,429 816.5,423Q817,417 819,414Q821,411 820.5,409ZM433,803Q435,799 437,799.5Q439,800 437.5,805.5Q436,811 436,817Q436,823 439.5,836Q443,849 448,857.5Q453,866 458.5,871.5Q464,877 468.5,880Q473,883 473,885Q473,887 468.5,891.5Q464,896 460,902Q456,908 448,915.5Q440,923 434.5,924.5Q429,926 421,917.5Q413,909 410.5,902.5Q408,896 407,888Q406,880 407,867.5Q408,855 411,845Q414,835 416.5,831.5Q419,828 420.5,823Q422,818 426.5,812.5Q431,807 433,803ZM723,843.5Q724,841 728.5,842Q733,843 741.5,851.5Q750,860 754.5,868.5Q759,877 760,881.5Q761,886 761,893Q761,900 758,907Q755,914 753.5,915Q752,916 751,918.5Q750,921 745.5,924.5Q741,928 733.5,930.5Q726,933 716,933.5Q706,934 705.5,932Q705,930 708,928.5Q711,927 717,920Q723,913 726,905Q729,897 729.5,883.5Q730,870 728.5,863.5Q727,857 724.5,851.5Q722,846 723,843.5ZM725.5,1126Q729,1123 730,1123Q731,1123 730,1131Q729,1139 722.5,1154Q716,1169 706,1178Q696,1187 685,1191Q674,1195 667.5,1195Q661,1195 660,1194Q659,1193 656,1193Q653,1193 647,1190Q641,1187 638,1186.5Q635,1186 631.5,1181.5Q628,1177 627,1170Q626,1163 628,1157.5Q630,1152 629.5,1149.5Q629,1147 632.5,1138.5Q636,1130 638,1130Q640,1130 646.5,1133.5Q653,1137 658,1137.5Q663,1138 664.5,1139Q666,1140 677.5,1140.5Q689,1141 700.5,1137.5Q712,1134 717,1131.5Q722,1129 725.5,1126ZM490.5,1128Q491,1127 492.5,1127Q494,1127 495,1128.5Q496,1130 500.5,1131Q505,1132 508,1134Q511,1136 522.5,1139Q534,1142 546.5,1142.5Q559,1143 570,1141.5Q581,1140 582.5,1142.5Q584,1145 584,1147.5Q584,1150 586,1152.5Q588,1155 589,1163Q590,1171 585,1178Q580,1185 572,1188.5Q564,1192 560,1192.5Q556,1193 555,1194Q554,1195 550,1195Q546,1195 545,1194Q544,1193 536,1191.5Q528,1190 522,1186.5Q516,1183 510.5,1176.5Q505,1170 501.5,1162.5Q498,1155 498,1152.5Q498,1150 494,1139.5Q490,1129 490.5,1128Z"/><path id="color-16" fill="#FBE2AD" stroke="#FBE2AD" stroke-width="0.5" stroke-linejoin="round" fill-rule="evenodd" d="M247.5,404Q248,403 257.5,403Q267,403 267,404Q267,405 257,405Q247,405 247.5,404ZM536,451.5Q547,450 564,450Q581,450 595,452Q609,454 610,455.5Q611,457 595,454.5Q579,452 564,452Q549,452 534.5,454.5Q520,457 519.5,456Q519,455 522,454Q525,453 536,451.5ZM659.5,471Q658,469 659.5,469Q661,469 665.5,472Q670,475 665.5,474Q661,473 659.5,471ZM459,480.5Q466,476 467,476Q468,476 467,477.5Q466,479 458.5,483.5Q451,488 451.5,486.5Q452,485 459,480.5ZM132.5,488.5Q134,486 134.5,487Q135,488 131.5,496.5Q128,505 127.5,509Q127,513 126,513Q125,513 126.5,505.5Q128,498 129.5,496.5Q131,495 131,493Q131,491 132.5,488.5ZM434.5,501Q446,490 447,490Q448,490 448,491Q448,492 447,492Q446,492 434,504Q422,516 422,517Q422,518 417,523Q412,528 407,536.5Q402,545 401,545Q400,545 405,536.5Q410,528 416.5,521Q423,514 423,513Q423,512 434.5,501ZM758,541Q758,540 760,541Q762,542 764.5,546.5Q767,551 762.5,546.5Q758,542 758,541ZM774,562Q770,555 771,555Q772,555 776,562Q780,569 779,569Q778,569 774,562ZM388,566Q391,561 391.5,563Q392,565 389.5,569Q387,573 382.5,585.5Q378,598 376.5,605.5Q375,613 375.5,617.5Q376,622 375,623Q374,624 375,626Q376,628 379,628Q382,628 382.5,627Q383,626 385.5,626Q388,626 388,627Q388,628 384.5,628.5Q381,629 379.5,630.5Q378,632 375.5,632Q373,632 372.5,626.5Q372,621 375,605.5Q378,590 380,587Q382,584 383.5,577.5Q385,571 388,566ZM1030,567Q1030,566 1035,566Q1040,566 1040.5,567Q1041,568 1035.5,568Q1030,568 1030,567ZM784,579.5Q782,575 783.5,575Q785,575 786.5,579.5Q788,584 787,584Q786,584 784,579.5ZM804,629Q801,616 802,617Q803,618 804.5,624Q806,630 808.5,645.5Q811,661 810,683Q809,705 806,716.5Q803,728 802.5,725.5Q802,723 803.5,719Q805,715 807,702.5Q809,690 809,675Q809,660 808,651Q807,642 804,629ZM910.5,631.5Q911,624 912,624Q913,624 912.5,631.5Q912,639 911,639Q910,639 910.5,631.5ZM1146,672Q1146,666 1147,666.5Q1148,667 1148,672.5Q1148,678 1147,678Q1146,678 1146,672ZM905.5,673Q906,667 907,667Q908,667 908,669Q908,671 906.5,675Q905,679 905.5,673ZM178,674Q178,673 179,673Q180,673 187.5,680.5Q195,688 195,689Q195,690 194,690Q193,690 185.5,682.5Q178,675 178,674ZM428,677.5Q431,674 432,674.5Q433,675 430.5,678.5Q428,682 422,684Q416,686 415.5,687Q415,688 413,688Q411,688 411.5,686.5Q412,685 415,685Q418,685 418.5,684Q419,683 422,682Q425,681 428,677.5ZM380.5,679Q381,677 383.5,677.5Q386,678 390,681Q394,684 391,683Q388,682 385,683Q382,684 381,682.5Q380,681 380.5,679ZM388.5,697.5Q388,695 389.5,695.5Q391,696 393.5,702Q396,708 392.5,704Q389,700 388.5,697.5ZM397.5,711Q397,709 406,718Q415,727 415,728Q415,729 414,729Q413,729 408,724Q403,719 403,718Q403,717 400.5,715Q398,713 397.5,711ZM892.5,719Q895,711 895.5,713.5Q896,716 895,716.5Q894,717 892,722Q890,727 892.5,719ZM798,737Q799,733 799.5,736Q800,739 798.5,740.5Q797,742 797,744Q797,746 795.5,747.5Q794,749 792.5,753.5Q791,758 789.5,758.5Q788,759 788,757.5Q788,756 792.5,748.5Q797,741 798,737ZM423.5,738.5Q421,735 422,735Q423,735 431.5,743Q440,751 438,750.5Q436,750 434.5,748Q433,746 429.5,744Q426,742 423.5,738.5ZM1128,740Q1131,735 1131.5,736.5Q1132,738 1129.5,743Q1127,748 1125.5,749Q1124,750 1124.5,747.5Q1125,745 1128,740ZM884,738.5Q886,736 886.5,737Q887,738 884,744.5Q881,751 877,756Q873,761 877.5,751Q882,741 884,738.5ZM326,745Q326,744 336.5,744Q347,744 347,745Q347,746 336.5,746Q326,746 326,745ZM744,748Q744,746 751,751Q758,756 760,759.5Q762,763 762,769Q762,775 761.5,777Q761,779 758,782.5Q755,786 751.5,788Q748,790 744.5,790.5Q741,791 746,788.5Q751,786 755,781Q759,776 758.5,768Q758,760 754.5,756.5Q751,753 747.5,751.5Q744,750 744,748ZM681,765.5Q682,760 683,760.5Q684,761 683.5,767.5Q683,774 687.5,779Q692,784 699,787.5Q706,791 711.5,791.5Q717,792 717.5,793.5Q718,795 712.5,794.5Q707,794 697,788.5Q687,783 684.5,779Q682,775 682,773.5Q682,772 681,771.5Q680,771 681,765.5ZM489,762Q489,761 497,761.5Q505,762 505,763Q505,764 497,763.5Q489,763 489,762ZM780.5,769Q785,762 786,762Q787,762 786,764.5Q785,767 782,771Q779,775 777.5,775.5Q776,776 780.5,769ZM511.5,765Q512,764 516,765Q520,766 521,767.5Q522,769 518.5,768.5Q515,768 513,767Q511,766 511.5,765ZM768.5,782.5Q772,779 773,779Q774,779 774,780Q774,781 770.5,784.5Q767,788 766,788Q765,788 765,787Q765,786 768.5,782.5ZM608,786.5Q611,786 615.5,786Q620,786 620,787Q620,788 615,788Q610,788 607,789Q604,790 604.5,788.5Q605,787 608,786.5ZM632,787Q632,786 638.5,786Q645,786 654,788Q663,790 669.5,793Q676,796 677,797.5Q678,799 676,799Q674,799 672.5,797.5Q671,796 663,793Q655,790 643.5,789Q632,788 632,787ZM1085.5,798.5Q1093,791 1094,791Q1095,791 1095,792Q1095,793 1087.5,800.5Q1080,808 1079,808Q1078,808 1078,807Q1078,806 1085.5,798.5ZM552,797.5Q551,794 553,795.5Q555,797 556.5,800.5Q558,804 555.5,802.5Q553,801 552,797.5ZM690.5,808.5Q683,802 685,802.5Q687,803 688,804.5Q689,806 693.5,808.5Q698,811 699,813Q700,815 699,815Q698,815 690.5,808.5ZM735.5,805.5Q738,804 739,804Q740,804 740,805.5Q740,807 737,808Q734,809 733.5,808Q733,807 735.5,805.5ZM720.5,811.5Q726,810 727,810.5Q728,811 725.5,812.5Q723,814 717,815.5Q711,817 711,816Q711,815 713,814Q715,813 720.5,811.5ZM343.5,848.5Q345,847 351,847Q357,847 357,848Q357,849 349.5,849.5Q342,850 343.5,848.5ZM984.5,855.5Q991,854 992,855Q993,856 985.5,857.5Q978,859 978,858Q978,857 984.5,855.5ZM554,859Q555,858 556.5,858Q558,858 559,860Q560,862 556.5,863Q553,864 553,862Q553,860 554,859ZM912.5,861Q913,860 915.5,861Q918,862 934,862Q950,862 948.5,863Q947,864 931,864Q915,864 913.5,863Q912,862 912.5,861ZM276,866.5Q281,864 282.5,864Q284,864 283,865.5Q282,867 275.5,869.5Q269,872 270,870.5Q271,869 276,866.5ZM404,879.5Q404,870 405,870Q406,870 406,879.5Q406,889 405,889Q404,889 404,879.5ZM565.5,878Q565,875 566.5,876Q568,877 569.5,881Q571,885 573.5,887.5Q576,890 577,892.5Q578,895 581.5,897.5Q585,900 587.5,903.5Q590,907 588.5,907Q587,907 583,903Q579,899 574,891Q569,883 567.5,882Q566,881 565.5,878ZM472,892Q475,887 477,887.5Q479,888 475,891.5Q471,895 468.5,899.5Q466,904 464.5,904.5Q463,905 463,903.5Q463,902 466,899.5Q469,897 472,892ZM523.5,890.5Q526,889 527.5,889Q529,889 529,890Q529,891 527,892Q525,893 513,893.5Q501,894 501,893Q501,892 511,892Q521,892 523.5,890.5ZM870,913.5Q869,912 870.5,912Q872,912 879,915.5Q886,919 886.5,920Q887,921 885,921Q883,921 877,918Q871,915 870,913.5ZM214,920Q215,917 216,917Q217,917 217,918Q217,919 214.5,922Q212,925 211,928.5Q210,932 208.5,933Q207,934 207,932.5Q207,931 210,927Q213,923 214,920ZM609.5,922.5Q605,919 611,921.5Q617,924 618,925.5Q619,927 616.5,926.5Q614,926 609.5,922.5ZM624.5,929.5Q624,928 633.5,931.5Q643,935 648,935.5Q653,936 653,937Q653,938 642.5,936Q632,934 631.5,933Q631,932 628,931.5Q625,931 624.5,929.5ZM445,951.5Q445,933 446,933Q447,933 447.5,937.5Q448,942 447.5,956.5Q447,971 449,982Q451,993 449.5,992Q448,991 446.5,980.5Q445,970 445,951.5ZM662,938Q662,937 672,937.5Q682,938 684,939.5Q686,941 689,948Q692,955 690.5,955Q689,955 686.5,949Q684,943 682,941Q680,939 671,939Q662,939 662,938ZM914,941Q914,940 915,940Q916,940 921,945Q926,950 926,951Q926,952 925,952Q924,952 919,947Q914,942 914,941ZM415,969.5Q415,959 416,959Q417,959 417,969.5Q417,980 416,980Q415,980 415,969.5ZM197.5,970Q198,964 199,971.5Q200,979 198.5,977.5Q197,976 197.5,970ZM787.5,978Q786,970 787,971Q788,972 789.5,981Q791,990 791,1004.5Q791,1019 790,1022.5Q789,1026 789,1006Q789,986 787.5,978ZM699.5,1000.5Q699,981 700,982.5Q701,984 702,996.5Q703,1009 701.5,1019.5Q700,1030 698.5,1032Q697,1034 697,1031Q697,1028 698.5,1024Q700,1020 699.5,1000.5ZM456,1017Q452,1004 453,1004Q454,1004 459,1018.5Q464,1033 462,1031.5Q460,1030 456,1017ZM207.5,1008Q207,1005 208,1005.5Q209,1006 210,1009.5Q211,1013 214,1017.5Q217,1022 216,1022Q215,1022 213.5,1018.5Q212,1015 210,1013Q208,1011 207.5,1008ZM408,1011Q412,1007 413,1007Q414,1007 414,1008Q414,1009 410,1013Q406,1017 405,1017Q404,1017 404,1016Q404,1015 408,1011ZM954.5,1020Q954,1012 955,1012.5Q956,1013 955.5,1020.5Q955,1028 954.5,1020ZM464.5,1037.5Q465,1036 469,1042Q473,1048 473.5,1050.5Q474,1053 479,1060Q484,1067 493,1076Q502,1085 503,1085Q504,1085 504.5,1086.5Q505,1088 501.5,1086Q498,1084 488,1073Q478,1062 473.5,1053.5Q469,1045 467.5,1044Q466,1043 465,1041Q464,1039 464.5,1037.5ZM783,1047.5Q785,1041 785,1045.5Q785,1050 784.5,1051.5Q784,1053 782.5,1053.5Q781,1054 783,1047.5ZM306,1055.5Q309,1055 311.5,1055Q314,1055 313.5,1056Q313,1057 308,1057.5Q303,1058 303,1057Q303,1056 306,1055.5ZM675.5,1067.5Q679,1064 680,1064Q681,1064 681,1065Q681,1066 677.5,1069.5Q674,1073 673,1073Q672,1073 672,1072Q672,1071 675.5,1067.5ZM656.5,1083Q662,1079 663,1079Q664,1079 664,1080Q664,1081 660.5,1082.5Q657,1084 656,1085.5Q655,1087 653,1087Q651,1087 656.5,1083ZM522.5,1099Q516,1095 528,1099.5Q540,1104 548,1105.5Q556,1107 559.5,1106.5Q563,1106 564.5,1107Q566,1108 569.5,1108Q573,1108 588.5,1105.5Q604,1103 605,1104Q606,1105 596.5,1107Q587,1109 570.5,1109Q554,1109 541.5,1106Q529,1103 522.5,1099ZM857,1098Q857,1097 867.5,1097.5Q878,1098 867.5,1098.5Q857,1099 857,1098ZM617,1099.5Q621,1098 624,1098.5Q627,1099 620,1101Q613,1103 613,1102Q613,1101 617,1099.5Z"/><path id="color-04" fill="#FCA9A6" stroke="#FCA9A6" stroke-width="0.5" stroke-linejoin="round" fill-rule="evenodd" d="M463.5,545.5Q471,544 479.5,545Q488,546 494,549Q500,552 506.5,558.5Q513,565 516.5,572Q520,579 521.5,585Q523,591 523,603.5Q523,616 520,626.5Q517,637 513,644Q509,651 501.5,659Q494,667 487.5,671Q481,675 474.5,677Q468,679 458.5,679Q449,679 440.5,676Q432,673 428.5,677Q425,681 421,683Q417,685 411.5,685.5Q406,686 399.5,684.5Q393,683 388,679.5Q383,676 381.5,676Q380,676 376,671.5Q372,667 369.5,661.5Q367,656 367,650Q367,644 369,639.5Q371,635 375.5,633Q380,631 380.5,630Q381,629 384.5,629Q388,629 389,628Q390,627 397.5,627.5Q405,628 405,622Q405,616 407,606.5Q409,597 412,590Q415,583 419.5,576.5Q424,570 430,564Q436,558 441.5,554.5Q447,551 451.5,549Q456,547 463.5,545.5ZM479.5,574Q485,570 492,570.5Q499,571 503,574.5Q507,578 508.5,581.5Q510,585 510,589.5Q510,594 509,596.5Q508,599 505.5,602Q503,605 498.5,607Q494,609 490.5,609Q487,609 482.5,607Q478,605 475.5,602Q473,599 472,596Q471,593 471,588.5Q471,584 472.5,581Q474,578 479.5,574ZM506,594Q506,592 506,587Q506,582 501,577.5Q496,573 490.5,573Q485,573 483,574Q481,575 477.5,580Q474,585 474,589Q474,593 475.5,596.5Q477,600 480,602.5Q483,605 485,605.5Q487,606 490.5,606Q494,606 497.5,604.5Q501,603 503.5,599.5Q506,596 506,594ZM518.5,618.5Q520,609 520.5,602Q521,595 520,594Q519,593 519,589.5Q519,586 514.5,576Q510,566 504.5,560.5Q499,555 494.5,552.5Q490,550 478,549Q466,548 460.5,549.5Q455,551 449,554Q443,557 433,566.5Q423,576 417.5,587Q412,598 410.5,605Q409,612 409,620.5Q409,629 410,630.5Q411,632 414.5,633.5Q418,635 423.5,641Q429,647 431,651.5Q433,656 433,662Q433,668 434.5,669.5Q436,671 444,673.5Q452,676 458.5,676Q465,676 470,675Q475,674 482,670.5Q489,667 497.5,658.5Q506,650 511.5,639Q517,628 518.5,618.5ZM704.5,623Q710,622 715.5,622Q721,622 728,624Q735,626 743,631.5Q751,637 757.5,647Q764,657 766.5,668Q769,679 769,687.5Q769,696 766.5,706Q764,716 759,725.5Q754,735 748.5,740.5Q743,746 743.5,748Q744,750 748,752Q752,754 755,757Q758,760 758.5,768Q759,776 755,781Q751,786 747,788Q743,790 736,791Q729,792 728,793Q727,794 716.5,792.5Q706,791 700,788Q694,785 689.5,781Q685,777 684,775Q683,773 683.5,766.5Q684,760 678,757.5Q672,755 664.5,748.5Q657,742 653,736Q649,730 646,718.5Q643,707 643,700.5Q643,694 644.5,686Q646,678 648.5,671.5Q651,665 655,658.5Q659,652 665,645.5Q671,639 677.5,634.5Q684,630 691.5,627Q699,624 704.5,623ZM722,653Q727,651 733,652Q739,653 743,656.5Q747,660 748.5,663Q750,666 750,671.5Q750,677 748.5,680.5Q747,684 744.5,686.5Q742,689 737,691Q732,693 729.5,693Q727,693 721.5,690.5Q716,688 713.5,685Q711,682 710,679Q709,676 709,672Q709,668 710.5,664.5Q712,661 714.5,658Q717,655 722,653ZM526,677.5Q529,674 532.5,674Q536,674 539,677Q542,680 542,683Q542,686 543.5,689Q545,692 551,692.5Q557,693 558,692Q559,691 562.5,690.5Q566,690 567.5,690.5Q569,691 574.5,697Q580,703 585,703Q590,703 595,698.5Q600,694 603.5,694Q607,694 609.5,696.5Q612,699 611.5,704Q611,709 605.5,714.5Q600,720 593.5,722Q587,724 579.5,722.5Q572,721 566.5,716.5Q561,712 555,713Q549,714 543.5,712.5Q538,711 533.5,707.5Q529,704 526.5,699.5Q524,695 523.5,688Q523,681 526,677.5ZM712.5,670Q712,676 715,681Q718,686 723,688Q728,690 732,689.5Q736,689 741,684.5Q746,680 746.5,673Q747,666 746,664Q745,662 740.5,658.5Q736,655 729.5,655Q723,655 718,659.5Q713,664 712.5,670ZM527,683.5Q526,688 528,694Q530,700 533,703Q536,706 540,708Q544,710 553.5,709.5Q563,709 566.5,712.5Q570,716 575,718Q580,720 585,720Q590,720 595,718Q600,716 604.5,710.5Q609,705 609,703Q609,701 607,699Q605,697 602,697.5Q599,698 597.5,700.5Q596,703 592.5,705Q589,707 585,707Q581,707 579,706Q577,705 572,699.5Q567,694 564,694Q561,694 558.5,695.5Q556,697 551.5,697Q547,697 544,694.5Q541,692 540,687Q539,682 536.5,679.5Q534,677 531,678Q528,679 527,683.5ZM763.5,702.5Q766,690 766.5,688Q767,686 766,685Q765,684 764,673.5Q763,663 758.5,654Q754,645 749.5,640.5Q745,636 739.5,632.5Q734,629 728.5,627.5Q723,626 714,626Q705,626 700.5,627Q696,628 688,632Q680,636 670,646Q660,656 656,663.5Q652,671 650,677.5Q648,684 647.5,697.5Q647,711 648.5,717Q650,723 653.5,730Q657,737 665,744.5Q673,752 679.5,754Q686,756 690,752.5Q694,749 700,746.5Q706,744 723.5,744Q741,744 746,739Q751,734 756,724.5Q761,715 763.5,702.5Z"/><path id="color-18" fill="#F9DB8B" stroke="#F9DB8B" stroke-width="0.5" stroke-linejoin="round" fill-rule="evenodd" d="M237,403.5Q242,402 243.5,402Q245,402 245,403.5Q245,405 238.5,406Q232,407 232,406Q232,405 237,403.5ZM285.5,406.5Q284,405 289,405.5Q294,406 295,407.5Q296,409 291.5,408.5Q287,408 285.5,406.5ZM310,414Q306,411 310,412Q314,413 322,417Q330,421 341,428.5Q352,436 365,449Q378,462 379,464.5Q380,467 382,468.5Q384,470 384.5,472.5Q385,475 382.5,473Q380,471 379.5,469Q379,467 376.5,465Q374,463 374,462Q374,461 369,456.5Q364,452 364,451Q364,450 358,444.5Q352,439 347,436Q342,433 340,430.5Q338,428 336.5,428Q335,428 333,426Q331,424 322.5,420.5Q314,417 310,414ZM198,416Q206,412 207,412Q208,412 207,413.5Q206,415 201,416.5Q196,418 193,420Q190,422 190,421Q190,420 198,416ZM176,429.5Q185,423 186,423Q187,423 186.5,424Q186,425 178.5,430Q171,435 162,444Q153,453 151,456.5Q149,460 148,460Q147,460 148.5,456.5Q150,453 158.5,444.5Q167,436 176,429.5ZM135,479Q139,470 140,470.5Q141,471 138,475.5Q135,480 134.5,483Q134,486 132.5,487Q131,488 135,479ZM431,501Q435,497 436,497Q437,497 437,498Q437,499 433,503Q429,507 428,507Q427,507 427,506Q427,505 431,501ZM729,510Q729,509 734.5,512.5Q740,516 746,522Q752,528 752,529Q752,530 751,530Q750,530 743,522.5Q736,515 732.5,513Q729,511 729,510ZM120.5,540.5Q121,531 122,531Q123,531 123,541Q123,551 121.5,550.5Q120,550 120.5,540.5ZM122.5,566Q123,564 124,564.5Q125,565 126,571.5Q127,578 125.5,577.5Q124,577 123,572.5Q122,568 122.5,566ZM1052.5,568Q1052,567 1056,567Q1060,567 1061,568Q1062,569 1064,569Q1066,569 1066,570Q1066,571 1059.5,570Q1053,569 1052.5,568ZM1071.5,572Q1071,571 1080,573.5Q1089,576 1090,577.5Q1091,579 1081.5,576Q1072,573 1071.5,572ZM979,573.5Q983,572 986,572Q989,572 988.5,573Q988,574 981,575.5Q974,577 974.5,576Q975,575 979,573.5ZM1095,581.5Q1094,580 1097,581Q1100,582 1106.5,587.5Q1113,593 1115.5,594Q1118,595 1125,603.5Q1132,612 1134.5,617.5Q1137,623 1134,620Q1131,617 1127.5,611Q1124,605 1117.5,598.5Q1111,592 1105.5,588Q1100,584 1098,583.5Q1096,583 1095,581.5ZM953.5,584.5Q960,581 961.5,581Q963,581 961.5,582.5Q960,584 948.5,589.5Q937,595 937,594Q937,593 940.5,590.5Q944,588 945.5,588Q947,588 953.5,584.5ZM132.5,604Q132,601 133.5,602Q135,603 135.5,606.5Q136,610 137,610.5Q138,611 138.5,613.5Q139,616 147.5,631.5Q156,647 155,647Q154,647 149,639Q144,631 140,622.5Q136,614 135.5,611Q135,608 134,607.5Q133,607 132.5,604ZM919,606Q925,601 926,601Q927,601 927,602Q927,603 920,608Q913,613 913,612Q913,611 919,606ZM159.5,654.5Q158,651 159,651Q160,651 164.5,658Q169,665 181.5,678Q194,691 195,691Q196,691 205,699Q214,707 216,707.5Q218,708 220,710.5Q222,713 214,708.5Q206,704 204,701.5Q202,699 195,694Q188,689 174.5,673.5Q161,658 159.5,654.5ZM227,717Q225,715 227.5,715.5Q230,716 230.5,717Q231,718 240,722Q249,726 249.5,727Q250,728 254.5,729Q259,730 260,731.5Q261,733 253.5,730.5Q246,728 237.5,723.5Q229,719 227,717ZM407,725Q407,724 408,724Q409,724 414.5,729.5Q420,735 420,736Q420,737 419,737Q418,737 412.5,731.5Q407,726 407,725ZM1132,737.5Q1137,726 1137.5,727Q1138,728 1137,731Q1136,734 1135,734.5Q1134,735 1133.5,738Q1133,741 1129.5,746Q1126,751 1124,756Q1122,761 1120,762.5Q1118,764 1118,762.5Q1118,761 1122.5,755Q1127,749 1132,737.5ZM374,735.5Q372,732 373,732Q374,732 376.5,735Q379,738 379,740Q379,742 378,743Q377,744 373.5,744.5Q370,745 369.5,744Q369,743 372,742Q375,741 375.5,740Q376,739 374,735.5ZM1108,776.5Q1109,774 1110,774Q1111,774 1111,775Q1111,776 1105.5,783.5Q1100,791 1089.5,801.5Q1079,812 1070,818Q1061,824 1059.5,826Q1058,828 1041,837.5Q1024,847 1012,851.5Q1000,856 997.5,856Q995,856 996.5,854.5Q998,853 1009,850Q1020,847 1020.5,846Q1021,845 1030.5,841Q1040,837 1048,831Q1056,825 1059.5,823.5Q1063,822 1079.5,807Q1096,792 1096,791Q1096,790 1101.5,784.5Q1107,779 1108,776.5ZM796.5,826Q798,825 798,827.5Q798,830 799,831Q800,832 807.5,835Q815,838 816.5,840Q818,842 807.5,837.5Q797,833 796,832Q795,831 795,829Q795,827 796.5,826ZM325,848Q330,847 331.5,847Q333,847 333,848.5Q333,850 326,851Q319,852 319.5,850.5Q320,849 325,848ZM378,850.5Q376,849 381.5,849.5Q387,850 391,851.5Q395,853 395.5,854Q396,855 388,853.5Q380,852 378,850.5ZM841,850Q841,849 844.5,849.5Q848,850 850,851.5Q852,853 849,853Q846,853 843.5,852Q841,851 841,850ZM855,854.5Q854,853 862,854.5Q870,856 870.5,857.5Q871,859 863.5,857.5Q856,856 855,854.5ZM292,857.5Q300,855 301.5,855Q303,855 302.5,856Q302,857 297,858Q292,859 289.5,861Q287,863 285,863Q283,863 275,867Q267,871 258,877Q249,883 242,889.5Q235,896 234,896Q233,896 226,904Q219,912 219,913Q219,914 217,915Q215,916 215.5,914Q216,912 221,907Q226,902 226,901Q226,900 237.5,890Q249,880 266.5,870Q284,860 292,857.5ZM402.5,858.5Q400,856 403,857Q406,858 407,859Q408,860 408,862Q408,864 406.5,864Q405,864 405,862.5Q405,861 402.5,858.5ZM804.5,898.5Q805,897 809.5,897Q814,897 814.5,898.5Q815,900 809.5,900Q804,900 804.5,898.5ZM790,899.5Q796,898 797.5,898Q799,898 798.5,899.5Q798,901 790,902.5Q782,904 783,902.5Q784,901 790,899.5ZM835,901.5Q833,900 843,901.5Q853,903 858,905.5Q863,908 869,909.5Q875,911 881,914Q887,917 891.5,920Q896,923 896,924Q896,925 884,919Q872,913 871.5,912Q871,911 854,907Q837,903 835,901.5ZM771,906.5Q777,903 778.5,904Q780,905 772.5,908.5Q765,912 765,911Q765,910 771,906.5ZM208.5,924Q211,920 212,920.5Q213,921 209.5,926.5Q206,932 203,943Q200,954 199,954Q198,954 202,941Q206,928 208.5,924ZM906.5,933Q900,927 907,931Q914,935 922.5,943.5Q931,952 933,956Q935,960 934,960Q933,960 933,959Q933,958 924,948.5Q915,939 914,939Q913,939 906.5,933ZM939,968Q938,965 939,965Q940,965 941.5,967Q943,969 943,970.5Q943,972 946,976Q949,980 949.5,983Q950,986 948.5,985Q947,984 945.5,979Q944,974 942,972.5Q940,971 939,968ZM199.5,991Q200,990 201.5,995.5Q203,1001 204,1001.5Q205,1002 208,1009.5Q211,1017 207.5,1013Q204,1009 201.5,1000.5Q199,992 199.5,991ZM408,1014.5Q411,1011 412,1011Q413,1011 413,1012Q413,1013 408.5,1017.5Q404,1022 391.5,1030.5Q379,1039 371,1043Q363,1047 356.5,1048.5Q350,1050 350.5,1049Q351,1048 353,1048Q355,1048 356.5,1046.5Q358,1045 361,1044.5Q364,1044 374,1039Q384,1034 385,1032.5Q386,1031 392.5,1027Q399,1023 401,1020.5Q403,1018 404,1018Q405,1018 408,1014.5ZM218,1027.5Q216,1024 217,1024Q218,1024 222,1029Q226,1034 234,1040Q242,1046 253.5,1050Q265,1054 264,1054.5Q263,1055 256.5,1053Q250,1051 240.5,1046Q231,1041 225.5,1036Q220,1031 218,1027.5ZM951,1046Q952,1042 952.5,1043.5Q953,1045 951.5,1049.5Q950,1054 947.5,1058Q945,1062 944,1062Q943,1062 945.5,1056.5Q948,1051 949,1050.5Q950,1050 951,1046ZM273,1056.5Q272,1055 276.5,1055.5Q281,1056 281.5,1057Q282,1058 278,1058Q274,1058 273,1056.5ZM779,1067.5Q778,1065 789,1073.5Q800,1082 798,1081.5Q796,1081 788,1075.5Q780,1070 779,1067.5ZM935,1071Q938,1067 939,1067Q940,1067 939,1069.5Q938,1072 935,1075Q932,1078 929.5,1079Q927,1080 927,1079Q927,1078 929.5,1076.5Q932,1075 935,1071ZM804.5,1085Q803,1083 808,1084.5Q813,1086 815,1088Q817,1090 811.5,1088.5Q806,1087 804.5,1085ZM914.5,1086.5Q918,1085 918.5,1086Q919,1087 914,1089Q909,1091 910,1089.5Q911,1088 914.5,1086.5Z"/><path id="color-14" fill="#ECCB65" stroke="#ECCB65" stroke-width="0.5" stroke-linejoin="round" fill-rule="evenodd" d="M547,354Q562,349 564.5,350Q567,351 569.5,353.5Q572,356 570,356Q568,356 566.5,354.5Q565,353 562,353Q559,353 554.5,354.5Q550,356 549.5,357Q549,358 546,358Q543,358 536.5,360Q530,362 531,360.5Q532,359 547,354ZM604.5,353Q609,350 610.5,350Q612,350 611,351.5Q610,353 605.5,355Q601,357 596.5,357.5Q592,358 590.5,359Q589,360 584.5,359.5Q580,359 590,357.5Q600,356 604.5,353ZM720,355Q711,351 719,352.5Q727,354 734.5,357.5Q742,361 749,363Q756,365 769.5,372Q783,379 785.5,381.5Q788,384 792,385.5Q796,387 797.5,389Q799,391 804.5,394Q810,397 814.5,401.5Q819,406 819.5,409.5Q820,413 818.5,414.5Q817,416 817,418.5Q817,421 815.5,421.5Q814,422 814,420.5Q814,419 815,418.5Q816,418 817,413Q818,408 816.5,406.5Q815,405 813,405Q811,405 810,403Q809,401 804.5,398Q800,395 798,392.5Q796,390 794.5,390Q793,390 788.5,387Q784,384 781,383.5Q778,383 775.5,379.5Q773,376 760.5,371Q748,366 746,364Q744,362 736.5,360.5Q729,359 720,355ZM512.5,369Q513,368 514.5,368Q516,368 515.5,369Q515,370 512,371Q509,372 501.5,377Q494,382 492.5,382Q491,382 488,385Q485,388 479,391.5Q473,395 473,393.5Q473,392 477.5,390Q482,388 487.5,383.5Q493,379 500,375Q507,371 509.5,370.5Q512,370 512.5,369ZM823,445.5Q822,443 823,443Q824,443 826,446Q828,449 826,448.5Q824,448 823,445.5ZM857,453Q860,451 861.5,451Q863,451 864.5,452.5Q866,454 867,457Q868,460 866,458.5Q864,457 855,457.5Q846,458 843,457Q840,456 847,455.5Q854,455 857,453ZM878.5,479Q876,473 879,477Q882,481 882.5,483.5Q883,486 882,485.5Q881,485 878.5,479ZM889,501.5Q889,498 891.5,502Q894,506 894,508.5Q894,511 891.5,508Q889,505 889,501.5ZM432,754Q433,753 435,753.5Q437,754 439,756.5Q441,759 449.5,762.5Q458,766 459,768.5Q460,771 455.5,773.5Q451,776 448,779.5Q445,783 442.5,783Q440,783 437,781.5Q434,780 432,778.5Q430,777 428.5,773.5Q427,770 427.5,767Q428,764 429.5,762.5Q431,761 431,758Q431,755 432,754ZM440.5,791Q445,787 446.5,787Q448,787 449,789.5Q450,792 447.5,793Q445,794 443.5,796.5Q442,799 441,812Q440,825 441.5,832Q443,839 447.5,849Q452,859 457,865Q462,871 468.5,875.5Q475,880 474.5,882Q474,884 463.5,875Q453,866 450.5,862.5Q448,859 443.5,848.5Q439,838 437.5,830.5Q436,823 436,817Q436,811 437.5,805.5Q439,800 437.5,799Q436,798 436,796.5Q436,795 440.5,791ZM565.5,823.5Q568,821 569.5,821Q571,821 571,822Q571,823 566.5,827Q562,831 560.5,836Q559,841 560,845.5Q561,850 560,850.5Q559,851 557.5,850Q556,849 556.5,840Q557,831 558,829Q559,827 561,826.5Q563,826 565.5,823.5ZM717,838Q718,836 725,837.5Q732,839 735,843Q738,847 734.5,844.5Q731,842 727.5,841.5Q724,841 723,842Q722,843 726,856.5Q730,870 729.5,883.5Q729,897 726,905Q723,913 717,920Q711,927 708,928.5Q705,930 705,931.5Q705,933 712.5,933.5Q720,934 728.5,932Q737,930 743.5,925.5Q750,921 754,914Q758,907 758.5,909Q759,911 757,915Q755,919 750,924Q745,929 741.5,931Q738,933 729,935Q720,937 709,937Q698,937 697.5,934.5Q697,932 701.5,929.5Q706,927 712.5,921Q719,915 721,911Q723,907 724.5,900.5Q726,894 726,881Q726,868 723.5,859Q721,850 718.5,845Q716,840 717,838ZM412.5,910Q412,908 420.5,917Q429,926 434.5,924.5Q440,923 444,918.5Q448,914 449,914Q450,914 450,915Q450,916 444.5,921.5Q439,927 434.5,928Q430,929 426,926.5Q422,924 417.5,918Q413,912 412.5,910ZM442.5,1072Q442,1069 444,1070.5Q446,1072 448,1077Q450,1082 452.5,1084.5Q455,1087 456,1089.5Q457,1092 456,1092Q455,1092 451.5,1086Q448,1080 445.5,1077.5Q443,1075 442.5,1072ZM727,1121.5Q733,1117 734,1117Q735,1117 734,1119Q733,1121 728.5,1123.5Q724,1126 723,1127.5Q722,1129 717,1131.5Q712,1134 705.5,1135.5Q699,1137 698.5,1138Q698,1139 693.5,1140Q689,1141 681,1141Q673,1141 669,1140Q665,1139 665,1138Q665,1137 676.5,1137.5Q688,1138 690.5,1137Q693,1136 697,1136Q701,1136 711,1131Q721,1126 727,1121.5ZM618.5,1121.5Q624,1119 628.5,1120Q633,1121 636,1124Q639,1127 644.5,1129Q650,1131 654.5,1134Q659,1137 656,1137Q653,1137 649,1134.5Q645,1132 643.5,1132Q642,1132 635,1127Q628,1122 624.5,1122.5Q621,1123 620.5,1124Q620,1125 614.5,1127.5Q609,1130 601.5,1132Q594,1134 596,1132Q598,1130 605,1128Q612,1126 612.5,1125Q613,1124 618.5,1121.5ZM494.5,1128Q493,1126 497.5,1127Q502,1128 506,1130.5Q510,1133 513,1133.5Q516,1134 516.5,1135Q517,1136 527,1137.5Q537,1139 537.5,1140.5Q538,1142 524.5,1139Q511,1136 508,1134Q505,1132 500.5,1131Q496,1130 494.5,1128ZM571,1138.5Q580,1137 581.5,1137Q583,1137 583,1138Q583,1139 576.5,1140.5Q570,1142 556.5,1142Q543,1142 543,1141Q543,1140 552.5,1140Q562,1140 571,1138.5Z"/><path id="color-01" fill="#FCFBFC" stroke="#FCFBFC" stroke-width="0.5" stroke-linejoin="round" fill-rule="evenodd" d="M483,574.5Q486,573 492,573.5Q498,574 501,576.5Q504,579 505.5,582Q507,585 507,588.5Q507,592 505.5,595.5Q504,599 501.5,601.5Q499,604 496.5,605Q494,606 488,605Q482,604 479,601Q476,598 475,595.5Q474,593 474.5,587.5Q475,582 477.5,579Q480,576 483,574.5ZM724.5,655Q728,654 733,655Q738,656 742.5,661Q747,666 746.5,673Q746,680 743.5,683Q741,686 736,688Q731,690 727.5,689.5Q724,689 721.5,687.5Q719,686 716.5,683.5Q714,681 713,678.5Q712,676 712,672Q712,668 714,664Q716,660 718.5,658Q721,656 724.5,655Z"/></svg>